<svg width="20" height="20" viewBox="0 0 20 20" fill="none" xmlns="http://www.w3.org/2000/svg">
<path fill-rule="evenodd" clip-rule="evenodd" d="M9.99984 18.3333C14.6022 18.3333 18.3332 14.6024 18.3332 10C18.3332 5.39762 14.6022 1.66667 9.99984 1.66667C5.39746 1.66667 1.6665 5.39762 1.6665 10C1.6665 14.6024 5.39746 18.3333 9.99984 18.3333Z" stroke="#E5E5E5" stroke-width="1.25" stroke-linecap="round" stroke-linejoin="round"/>
<path d="M1.6665 10H18.3332" stroke="#E5E5E5" stroke-width="1.25" stroke-linecap="round" stroke-linejoin="round"/>
<path fill-rule="evenodd" clip-rule="evenodd" d="M9.99984 18.3333C11.8408 18.3333 13.3332 14.6024 13.3332 10C13.3332 5.39762 11.8408 1.66667 9.99984 1.66667C8.15888 1.66667 6.6665 5.39762 6.6665 10C6.6665 14.6024 8.15888 18.3333 9.99984 18.3333Z" stroke="#E5E5E5" stroke-width="1.25" stroke-linecap="round" stroke-linejoin="round"/>
<path d="M4.10742 4.22607C5.61546 5.73412 7.69879 6.66687 9.99996 6.66687C12.3012 6.66687 14.3845 5.73412 15.8925 4.22607" stroke="#E5E5E5" stroke-width="1.25" stroke-linecap="round" stroke-linejoin="round"/>
<path d="M15.8925 15.7741C14.3845 14.2661 12.3012 13.3333 9.99996 13.3333C7.69879 13.3333 5.61546 14.2661 4.10742 15.7741" stroke="#E5E5E5" stroke-width="1.25" stroke-linecap="round" stroke-linejoin="round"/>
</svg>
