<svg width="29" height="28" viewBox="0 0 29 28" fill="none" xmlns="http://www.w3.org/2000/svg">
<path d="M12.0251 5.1614C13.392 3.79456 15.608 3.79456 16.9749 5.1614C18.3417 6.52823 18.3417 8.74431 16.9749 10.1111L14.5 12.586L12.0251 10.1111C10.6583 8.74431 10.6583 6.52823 12.0251 5.1614Z" fill="white"/>
<path d="M5.66111 11.5252C7.02795 10.1583 9.24403 10.1583 10.6109 11.5252L13.0857 14L10.6109 16.4749C9.24402 17.8417 7.02795 17.8417 5.66111 16.4749C4.29428 15.1081 4.29428 12.892 5.66111 11.5252Z" fill="white"/>
<path d="M18.3891 11.5252C19.756 10.1583 21.9721 10.1583 23.3389 11.5252C24.7057 12.892 24.7057 15.1081 23.3389 16.4749C21.9721 17.8417 19.756 17.8417 18.3891 16.4749L15.9143 14L18.3891 11.5252Z" fill="white"/>
<path d="M14.5 15.4146L16.9749 17.8894C18.3417 19.2563 18.3417 21.4723 16.9749 22.8392C15.608 24.206 13.392 24.206 12.0251 22.8392C10.6583 21.4723 10.6583 19.2563 12.0251 17.8894L14.5 15.4146Z" fill="white"/>
</svg>
