<svg width="29" height="28" viewBox="0 0 29 28" fill="none" xmlns="http://www.w3.org/2000/svg">
<g clip-path="url(#clip0_1708_3932)">
<path fill-rule="evenodd" clip-rule="evenodd" d="M5.96422 22.5359C7.21547 23.7871 10.7289 22.3967 14.5004 19.371C18.2665 22.3904 21.775 23.7766 23.0258 22.5258C24.2766 21.275 22.8904 17.7665 19.8709 14.0005C22.8966 10.2289 24.2871 6.71551 23.0359 5.46427C21.7846 4.21303 18.2712 5.60351 14.4997 8.62921C10.7336 5.60969 7.22506 4.22349 5.97425 5.47429C4.72345 6.7251 6.10965 10.2336 9.12917 13.9997C6.10346 17.7712 4.71298 21.2847 5.96422 22.5359ZM10.9645 17.5357C12.9171 19.4883 16.0829 19.4883 18.0356 17.5357C19.9882 15.5831 19.9882 12.4172 18.0356 10.4646C16.0829 8.51198 12.9171 8.51198 10.9645 10.4646C9.01187 12.4172 9.01187 15.5831 10.9645 17.5357Z" fill="white"/>
<circle cx="14.5" cy="14" r="2" fill="white"/>
</g>
<defs>
<clipPath id="clip0_1708_3932">
<rect width="28" height="28" fill="white" transform="translate(0.5)"/>
</clipPath>
</defs>
</svg>
