<svg width="46" height="46" viewBox="0 0 46 46" fill="none" xmlns="http://www.w3.org/2000/svg">
<path fill-rule="evenodd" clip-rule="evenodd" d="M40 13C40 10.7909 38.2091 9 36 9H10C7.79086 9 6 10.7909 6 13V30.2297L13.4243 24.0428C14.921 22.7956 17.0985 22.8081 18.5808 24.0724L27.5647 31.7352C27.9279 29.6142 29.7754 28 32 28C32 25.5147 34.0147 23.5 36.5 23.5C37.9136 23.5 39.175 24.1518 40 25.1713V13ZM27.5735 37L15.985 27.1157L6.53148 34.9937C7.22219 36.1928 8.51682 37 10 37H27.5735ZM34 17C34 19.2091 32.2091 21 30 21C27.7909 21 26 19.2091 26 17C26 14.7909 27.7909 13 30 13C32.2091 13 34 14.7909 34 17Z" fill="#A4A4A4"/>
<path d="M36.5 26.5C37.3284 26.5 38 27.1716 38 28V31H41C41.8284 31 42.5 31.6716 42.5 32.5C42.5 33.3284 41.8284 34 41 34H38V37C38 37.8284 37.3284 38.5 36.5 38.5C35.6716 38.5 35 37.8284 35 37V34H32C31.1716 34 30.5 33.3284 30.5 32.5C30.5 31.6716 31.1716 31 32 31H35V28C35 27.1716 35.6716 26.5 36.5 26.5Z" fill="#A4A4A4"/>
</svg>
