<svg width="16" height="16" viewBox="0 0 16 16" fill="none" xmlns="http://www.w3.org/2000/svg">
<g clip-path="url(#clip0_15_4826)">
<path d="M14.183 3.2605C14.1846 3.11972 14.158 2.98004 14.1045 2.84978C14.0511 2.71952 13.972 2.60133 13.872 2.50225L12.7055 1.31625C12.5056 1.12032 12.2369 1.01057 11.957 1.01057C11.6771 1.01057 11.4084 1.12032 11.2085 1.31625L0.4085 12.1353C0.308853 12.2338 0.229744 12.3511 0.175753 12.4804C0.121761 12.6097 0.0939606 12.7485 0.0939606 12.8886C0.0939606 13.0288 0.121761 13.1675 0.175753 13.2968C0.229744 13.4261 0.308853 13.5435 0.4085 13.642L1.575 14.8085C1.77364 15.0068 2.04284 15.1181 2.3235 15.1181C2.60416 15.1181 2.87336 15.0068 3.072 14.8085L13.872 4.0085C13.9712 3.91097 14.0499 3.79451 14.1033 3.66603C14.1567 3.53754 14.1838 3.39964 14.183 3.2605ZM9.983 6.24475L8.96225 5.20475L11.9563 2.2885L12.977 3.2605L9.983 6.24475ZM2.7995 6.10875L3.791 4.291L5.599 3.2995L3.791 2.31775L2.7995 0.5L1.808 2.31775L0 3.2995L1.808 4.291L2.7995 6.10875ZM10.6538 10.4928L9.74 12.184L8.05825 13.1075L9.74 14.0407L10.6538 15.732L11.5773 14.0407L13.259 13.1075L11.5773 12.184L10.6538 10.4928ZM14.921 7.21775L14.328 6.022L13.735 7.21775L12.6462 7.87875L13.735 8.53975L14.328 9.745L14.921 8.53975L16 7.87875L14.921 7.21775Z" fill="#6B7280"/>
</g>
<defs>
<clipPath id="clip0_15_4826">
<rect width="16" height="16" fill="white"/>
</clipPath>
</defs>
</svg>
