<svg width="16" height="16" viewBox="0 0 16 16" fill="none" xmlns="http://www.w3.org/2000/svg">
<path d="M12.2796 11.2197L8.81163 7.75075L12.2806 4.28175C12.5746 3.98775 12.5756 3.51375 12.2816 3.21975C11.9886 2.92675 11.5126 2.92675 11.2206 3.21975L7.75063 6.68875L4.28063 3.21975C3.98863 2.92675 3.51363 2.92675 3.21963 3.21975C2.92763 3.51275 2.92763 3.98875 3.22163 4.28275L6.68963 7.75075L3.22063 11.2188C2.92663 11.5118 2.92663 11.9867 3.21963 12.2807C3.36663 12.4287 3.56063 12.5007 3.75063 12.5007C3.94063 12.5007 4.13463 12.4288 4.28063 12.2817L7.75063 8.81275L11.2206 12.2817C11.3676 12.4277 11.5596 12.5007 11.7506 12.5007C11.9426 12.5007 12.1346 12.4288 12.2806 12.2817C12.5736 11.9867 12.5746 11.5127 12.2796 11.2197Z" fill="#161616"/>
</svg>
