<svg width="18" height="18" viewBox="0 0 18 18" fill="none" xmlns="http://www.w3.org/2000/svg">
<path d="M8.99927 1.50024C7.96373 1.50024 7.12427 2.33971 7.12427 3.37524C7.12427 4.02106 7.45077 4.59061 7.94771 4.92784L6.03962 8.74401L4.1719 7.81015C4.37888 7.50865 4.5 7.14359 4.5 6.75024C4.5 5.71471 3.66053 4.87524 2.625 4.87524C1.58947 4.87524 0.75 5.71471 0.75 6.75024C0.75 7.57852 1.28707 8.28136 2.03196 8.52952L4.15389 15.9563C4.24588 16.2783 4.54017 16.5002 4.87503 16.5002H13.125C13.4599 16.5002 13.7542 16.2783 13.8462 15.9563L15.9682 8.52937C16.7128 8.28107 17.2496 7.57835 17.2496 6.75024C17.2496 5.71471 16.4102 4.87524 15.3746 4.87524C14.3391 4.87524 13.4996 5.71471 13.4996 6.75024C13.4996 7.14366 13.6208 7.50878 13.8278 7.81031L11.9604 8.74401L10.052 4.92706C10.5483 4.58974 10.8743 4.02056 10.8743 3.37524C10.8743 2.33971 10.0348 1.50024 8.99927 1.50024Z" fill="url(#paint0_linear_15_4795)"/>
<defs>
<linearGradient id="paint0_linear_15_4795" x1="1" y1="12.0002" x2="17" y2="12.0002" gradientUnits="userSpaceOnUse">
<stop stop-color="#FFF8B9"/>
<stop offset="0.25" stop-color="#EFC364"/>
<stop offset="0.5" stop-color="#FFE1AF"/>
<stop offset="0.75" stop-color="#DE8D50"/>
<stop offset="1" stop-color="#FFF2A9"/>
</linearGradient>
</defs>
</svg>
