<svg width="28" height="28" viewBox="0 0 28 28" fill="none" xmlns="http://www.w3.org/2000/svg">
<path d="M21.0755 22.2125H6.7897C5.2119 22.2125 3.93262 20.9336 3.93262 19.3555V15.784C3.93262 15.3896 4.25262 15.0698 4.64675 15.0698H6.07557C6.46995 15.0698 6.7897 15.3896 6.7897 15.784V17.9269C6.7897 18.716 7.42922 19.3555 8.21824 19.3555H19.647C20.436 19.3555 21.0755 18.716 21.0755 17.9269V15.784C21.0755 15.3896 21.3953 15.0698 21.7899 15.0698H23.2185C23.6128 15.0698 23.9326 15.3896 23.9326 15.784V19.3555C23.9326 20.9336 22.6536 22.2125 21.0755 22.2125ZM8.12594 8.19889C8.41491 7.90997 8.88374 7.90997 9.17273 8.19889L12.5043 11.5305V4.3385C12.5043 3.94412 12.8241 3.62402 13.2185 3.62402H14.647C15.0414 3.62402 15.3614 3.94412 15.3614 4.3385V11.5305L18.693 8.19889C18.982 7.90997 19.4506 7.90997 19.7396 8.19889L20.7865 9.24593C21.0755 9.53493 21.0755 10.0035 20.7865 10.2927L14.8871 16.1922C14.8616 16.2177 14.4026 16.4983 13.9407 16.4985C13.4738 16.4987 13.0042 16.218 12.9786 16.1922L7.07892 10.2927C6.78993 10.0035 6.78993 9.53493 7.07892 9.24593L8.12594 8.19889Z" fill="white"/>
</svg>
