<svg width="80" height="80" viewBox="0 0 80 80" fill="none" xmlns="http://www.w3.org/2000/svg">
<path fill-rule="evenodd" clip-rule="evenodd" d="M69.5684 22.6084C69.5681 18.7666 66.4532 15.6523 62.6113 15.6523H17.3936C13.5519 15.6526 10.4377 18.7668 10.4375 22.6084V52.573L23.3484 41.8139C25.9513 39.6448 29.7384 39.6665 32.3163 41.8653L44.6041 52.3461C46.988 45.6483 53.5791 41.0014 61.0478 41.0014C64.1125 41.0014 67.0293 41.7839 69.5684 43.1694V22.6084ZM43.9351 60.9188C44.1575 62.1144 44.5086 63.2614 44.9729 64.3477H17.3936C14.8142 64.3475 12.5627 62.9436 11.3616 60.8583L27.8019 47.1581L43.9351 60.9188ZM69.2536 49.2649L69.2334 49.2465C69.0892 49.121 68.9414 48.9991 68.791 48.8803L69.2324 49.2465C69.2395 49.2526 69.2465 49.2588 69.2536 49.2649ZM59.1314 29.5655C59.1314 33.4075 56.0169 36.522 52.1749 36.522C48.3329 36.522 45.2184 33.4075 45.2184 29.5655C45.2184 25.7235 48.3329 22.609 52.1749 22.609C56.0169 22.609 59.1314 25.7235 59.1314 29.5655ZM67.9353 48.2645C67.8049 48.1795 67.6727 48.0969 67.5391 48.016C67.5629 48.0304 67.5868 48.0448 67.6107 48.0592C67.6926 48.1084 67.7744 48.1576 67.8545 48.2094L67.9353 48.2645ZM64.9163 46.8197C64.8336 46.7932 64.7505 46.7674 64.667 46.7426L64.0898 46.5854C64.3694 46.6542 64.645 46.7326 64.9163 46.8197Z" fill="#A8ABB2"/>
<path d="M60.8691 45.218C67.5926 45.218 73.0429 50.6684 73.043 57.3918C73.043 64.1153 67.5926 69.5657 60.8691 69.5657C54.1457 69.5656 48.6953 64.1153 48.6953 57.3918C48.6954 50.6684 54.1457 45.2181 60.8691 45.218ZM60.8691 61.7122C60.3406 61.7122 59.9025 61.8859 59.5547 62.2336C59.2069 62.5815 59.0332 63.027 59.0332 63.5696C59.0332 64.0982 59.2069 64.5362 59.5547 64.884C59.9025 65.2318 60.3405 65.4055 60.8691 65.4055C61.3978 65.4055 61.8367 65.2319 62.1846 64.884C62.5322 64.5363 62.706 64.098 62.7061 63.5696C62.7061 63.0271 62.5323 62.5814 62.1846 62.2336C61.8367 61.8858 61.3978 61.7122 60.8691 61.7122ZM59.1367 49.6077L59.2412 52.717L59.8047 59.8547H61.9336L62.4971 52.717L62.6016 49.6077H59.1367Z" fill="#A8ABB2"/>
</svg>
