<svg width="20" height="20" viewBox="0 0 20 20" fill="none" xmlns="http://www.w3.org/2000/svg">
<path fill-rule="evenodd" clip-rule="evenodd" d="M9.99984 18.3334C14.6022 18.3334 18.3332 14.6025 18.3332 10.0001C18.3332 5.39771 14.6022 1.66675 9.99984 1.66675C5.39746 1.66675 1.6665 5.39771 1.6665 10.0001C1.6665 14.6025 5.39746 18.3334 9.99984 18.3334Z" stroke="#161616" stroke-width="1.25" stroke-linecap="round" stroke-linejoin="round"/>
<path d="M1.6665 10H18.3332" stroke="#161616" stroke-width="1.25" stroke-linecap="round" stroke-linejoin="round"/>
<path fill-rule="evenodd" clip-rule="evenodd" d="M9.99984 18.3334C11.8408 18.3334 13.3332 14.6025 13.3332 10.0001C13.3332 5.39771 11.8408 1.66675 9.99984 1.66675C8.15888 1.66675 6.6665 5.39771 6.6665 10.0001C6.6665 14.6025 8.15888 18.3334 9.99984 18.3334Z" stroke="#161616" stroke-width="1.25" stroke-linecap="round" stroke-linejoin="round"/>
<path d="M4.10742 4.22607C5.61546 5.73412 7.69879 6.66687 9.99996 6.66687C12.3012 6.66687 14.3845 5.73412 15.8925 4.22607" stroke="#161616" stroke-width="1.25" stroke-linecap="round" stroke-linejoin="round"/>
<path d="M15.8925 15.774C14.3845 14.266 12.3012 13.3333 9.99996 13.3333C7.69879 13.3333 5.61546 14.266 4.10742 15.774" stroke="#161616" stroke-width="1.25" stroke-linecap="round" stroke-linejoin="round"/>
</svg>
