<svg width="32" height="29" viewBox="0 0 32 29" fill="none" xmlns="http://www.w3.org/2000/svg">
<path d="M31.6331 24.3691C32.6753 26.1743 31.3728 28.4307 29.2883 28.4307H2.71216C0.627733 28.4307 -0.674781 26.1743 0.367432 24.3691L3.65063 18.6816C6.34129 22.2703 10.8892 25.1357 16.0002 25.1357C21.1112 25.1357 25.6582 22.2701 28.3489 18.6816L31.6331 24.3691ZM13.6555 1.35352C14.6977 -0.45165 17.3028 -0.45165 18.345 1.35352L22.8127 9.09277C20.7654 8.01432 18.4476 7.35646 16.0002 7.35645C13.5526 7.35647 11.2343 8.01411 9.18677 9.09277L13.6555 1.35352Z" fill="white"/>
<path opacity="0.7" d="M16.021 9.66113C20.7361 9.66116 24.8255 12.3672 26.8521 16.3262C24.8255 20.2851 20.7361 22.9912 16.021 22.9912C11.3059 22.9912 7.21647 20.2851 5.18994 16.3262C7.2165 12.3672 11.3059 9.66113 16.021 9.66113ZM16.021 11.8682C13.5845 11.8682 11.609 13.8641 11.6089 16.3262C11.6089 18.7883 13.5844 20.7842 16.021 20.7842C18.4575 20.7841 20.4331 18.7883 20.4331 16.3262C20.433 13.8641 18.4574 11.8682 16.021 11.8682ZM16.021 14.5215C17.0179 14.5215 17.8256 15.3293 17.8257 16.3262C17.8257 17.3231 17.0179 18.1318 16.021 18.1318C15.024 18.1318 14.2153 17.3231 14.2153 16.3262C14.2154 15.3293 15.0241 14.5215 16.021 14.5215Z" fill="white"/>
</svg>
