<svg width="306" height="200" viewBox="0 0 306 200" fill="none" xmlns="http://www.w3.org/2000/svg">
<g clip-path="url(#clip0_15_5582)">
<path d="M299.93 47.1539L295.156 70.2672L292.084 67.2746L286.857 71.0005L282.861 66.0426L273.903 72.5566L266.247 59.753L257.708 64.7557L254.321 60.0822L243.478 66.1922L240.216 59.2093L247.817 22.3945L288.567 30.8089L299.93 47.1539Z" fill="#EBEBEB"/>
<path d="M288.568 30.809L299.93 47.1539L285.795 44.2361L288.568 30.809Z" fill="#DBDBDB"/>
<path d="M294.139 74.8908L287.141 108.803L232.251 97.4754L239.199 63.8279L242.461 70.8158L253.309 64.7057L256.691 69.3743L265.235 64.3715L272.886 77.1752L281.849 70.6611L285.84 75.619L291.072 71.8931L294.139 74.8908Z" fill="#EBEBEB"/>
<path d="M215.576 70.9158L159.638 74.3773L155.194 2.56822L196.733 -0.000488281L211.98 12.7882L215.576 70.9158Z" fill="#EBEBEB"/>
<path d="M196.732 -0.000732422L211.98 12.7879L197.575 13.6807L196.732 -0.000732422Z" fill="#DBDBDB"/>
<path d="M181.225 48.3109L181.011 46.6898C180.447 43.3331 181.365 39.5773 184.283 35.6519C186.911 32.1804 188.338 29.6516 188.183 26.8335C188.004 23.6413 185.884 21.6262 181.938 21.7859C179.684 21.9105 177.225 22.8034 175.729 24.0802L174.008 20.2247C175.988 18.6086 179.499 17.4066 182.816 17.222C190.009 16.818 193.51 21.0776 193.779 25.8309C194.019 30.0855 191.814 33.2827 189.011 37.0185C186.442 40.4252 185.594 43.2333 185.959 46.4155L186.113 48.0365L181.235 48.3109H181.225ZM180.337 57.1492C180.208 54.8349 181.679 53.1191 183.869 52.9994C186.058 52.8747 187.649 54.4209 187.779 56.7352C187.904 58.9249 186.557 60.6955 184.243 60.8252C182.053 60.9499 180.457 59.3438 180.332 57.1542L180.337 57.1492Z" fill="#DBDBDB"/>
<path d="M41.3286 36.1011L35.6974 33.5474L34.9193 35.2731C34.6899 35.7819 34.1911 36.1011 33.6374 36.126C33.3282 36.141 33.0239 36.1709 32.7197 36.2158C32.171 36.3006 31.6224 36.0762 31.2982 35.6273L30.1959 34.091L25.1682 37.6922L26.2705 39.2284C26.5947 39.6773 26.6246 40.2709 26.3702 40.7647C26.2256 41.039 26.1009 41.3183 25.9912 41.6076C25.7917 42.1263 25.3228 42.4954 24.7692 42.5453L22.8838 42.7299L23.4923 48.8798L25.3827 48.6903C25.9363 48.6354 26.46 48.9097 26.7643 49.3786C26.8441 49.5083 26.9289 49.633 27.0187 49.7576C27.1084 49.8823 27.1982 50.002 27.293 50.1218C27.6371 50.5557 27.7319 51.1393 27.5025 51.643L26.7144 53.3788L32.3456 55.9325L33.1287 54.2067C33.3581 53.698 33.8569 53.3788 34.4105 53.3538C34.7148 53.3389 35.024 53.3089 35.3283 53.2641C35.877 53.1793 36.4256 53.4037 36.7498 53.8526L37.8521 55.3889L42.8798 51.7877L41.7775 50.2514C41.4533 49.8025 41.4234 49.209 41.6777 48.7152C41.8174 48.4409 41.9471 48.1616 42.0568 47.8773C42.2563 47.3585 42.7252 46.9894 43.2788 46.9346L45.1642 46.75L44.5557 40.6001L42.6653 40.7846C42.1117 40.8395 41.5929 40.5652 41.2887 40.0963C41.2089 39.9666 41.1191 39.8419 41.0293 39.7172C40.9396 39.5925 40.8498 39.4728 40.755 39.3531C40.4059 38.9192 40.3161 38.3306 40.5455 37.8269L41.3286 36.1011ZM38.1364 41.7922C39.7624 44.0666 39.2437 47.2239 36.9693 48.8549C34.6949 50.4809 31.5326 49.9621 29.9016 47.6927C28.2756 45.4183 28.7943 42.251 31.0687 40.625C33.3432 38.999 36.5054 39.5227 38.1314 41.7972L38.1364 41.7922Z" fill="#EBEBEB"/>
<path d="M295.656 117.701L291.905 119.866L292.568 121.013C292.763 121.352 292.743 121.766 292.533 122.09C292.414 122.27 292.309 122.459 292.209 122.649C292.035 122.993 291.681 123.217 291.296 123.217H289.97V127.547H291.296C291.686 127.547 292.035 127.771 292.209 128.115C292.309 128.31 292.414 128.495 292.533 128.674C292.748 128.998 292.763 129.417 292.568 129.751L291.905 130.899L295.656 133.063L296.319 131.911C296.514 131.572 296.883 131.387 297.277 131.407C297.382 131.412 297.491 131.417 297.596 131.417C297.701 131.417 297.811 131.417 297.915 131.407C298.304 131.387 298.673 131.572 298.868 131.906L299.536 133.063L303.287 130.899L302.624 129.747C302.429 129.407 302.449 128.993 302.664 128.669C302.783 128.49 302.888 128.305 302.988 128.111C303.162 127.766 303.512 127.542 303.901 127.542H305.227V123.213H303.901C303.512 123.213 303.162 122.988 302.988 122.644C302.888 122.449 302.783 122.265 302.664 122.085C302.449 121.761 302.429 121.342 302.624 121.008L303.287 119.856L299.536 117.691L298.873 118.843C298.678 119.182 298.309 119.367 297.92 119.347C297.816 119.342 297.706 119.337 297.601 119.337C297.496 119.337 297.387 119.337 297.282 119.347C296.893 119.367 296.519 119.182 296.324 118.843L295.661 117.691L295.656 117.701ZM297.596 121.841C299.556 121.841 301.142 123.427 301.142 125.387C301.142 127.347 299.556 128.933 297.596 128.933C295.636 128.933 294.05 127.342 294.05 125.387C294.05 123.432 295.641 121.841 297.596 121.841Z" fill="#EBEBEB"/>
<path d="M52.7111 17.6711L49.2696 20.2997L50.0776 21.3521C50.317 21.6614 50.3519 22.0754 50.1823 22.4295C50.0876 22.624 50.0078 22.8235 49.9329 23.028C49.8033 23.3921 49.484 23.6615 49.1 23.7113L47.7832 23.8809L48.3418 28.1754L49.6586 28.0058C50.0427 27.9559 50.4217 28.1305 50.6412 28.4547C50.7659 28.6343 50.8956 28.8039 51.0352 28.9685C51.2896 29.2627 51.3594 29.6717 51.2098 30.0358L50.7011 31.2579L54.7013 32.9188L55.21 31.6918C55.3596 31.3327 55.7038 31.0982 56.0928 31.0683C56.1976 31.0583 56.3023 31.0484 56.4121 31.0334C56.5168 31.0184 56.6215 31.0035 56.7263 30.9835C57.1104 30.9137 57.4994 31.0484 57.7338 31.3576L58.5468 32.42L61.9884 29.7914L61.1804 28.734C60.946 28.4248 60.911 28.0108 61.0806 27.6567C61.1754 27.4622 61.2552 27.2626 61.33 27.0631C61.4597 26.699 61.7789 26.4297 62.163 26.3798L63.4797 26.2102L62.9211 21.9157L61.6043 22.0853C61.2203 22.1352 60.8412 21.9606 60.6217 21.6414C60.502 21.4619 60.3674 21.2923 60.2277 21.1277C59.9733 20.8334 59.9035 20.4244 60.0531 20.0603L60.5619 18.8333L56.5617 17.1724L56.0529 18.3994C55.9033 18.7585 55.5592 18.9879 55.1751 19.0228C55.0703 19.0328 54.9606 19.0428 54.8559 19.0577C54.7511 19.0727 54.6464 19.0877 54.5416 19.1076C54.1576 19.1775 53.7635 19.0428 53.5291 18.7335L52.7211 17.6811L52.7111 17.6711ZM55.1701 21.5267C57.1104 21.2723 58.891 22.644 59.1454 24.5842C59.3997 26.5245 58.0281 28.3101 56.0879 28.5595C54.1476 28.8138 52.362 27.4422 52.1126 25.497C51.8582 23.5567 53.2299 21.7761 55.1751 21.5217L55.1701 21.5267Z" fill="#EBEBEB"/>
<path d="M27.0331 130.205C27.2276 125.377 27.1528 120.544 26.8336 115.725C26.1802 105.785 24.5442 95.919 22.2947 86.2227C21.0278 80.7611 19.4716 75.3943 17.8506 70.0324C17.8007 69.8728 17.5414 69.9177 17.5863 70.0873C22.604 88.991 26.7239 108.493 26.4396 128.145C26.3598 133.642 25.7213 139.043 25.2026 144.51C25.1876 144.655 25.427 144.714 25.462 144.565C26.4994 139.886 26.8336 134.988 27.0281 130.215L27.0331 130.205Z" fill="#EBEBEB"/>
<path d="M17.5864 70.0825C17.5864 70.0825 9.98002 89.3852 11.6858 93.9191C13.3867 98.458 16.8981 99.4256 16.8981 99.4256C16.8981 99.4256 12.2445 106.069 15.4965 112.299C18.7485 118.529 25.9708 118.235 26.4497 125.297C26.4497 125.297 26.8537 95.7596 17.5864 70.0825Z" fill="#EBEBEB"/>
<path d="M25.6264 113.102C25.6364 113.072 25.6314 113.037 25.6164 113.002C24.5491 99.8792 22.2198 86.7963 18.2395 74.1722C18.2295 74.1373 18.1647 74.1473 18.1747 74.1872C19.681 79.8334 21.0227 85.5094 22.1699 91.2155C21.1823 90.198 19.8905 89.6144 18.5388 89.1904C18.5138 89.1805 18.4989 89.2203 18.5238 89.2303C19.9304 89.8388 21.2771 90.5421 22.2696 91.7342C22.4941 92.8515 22.7086 93.9737 22.9181 95.091C21.2172 93.1906 18.863 92.2479 16.5038 91.3551C16.4689 91.3402 16.4539 91.395 16.4838 91.405C18.9378 92.4026 21.3868 93.6944 23.0527 95.8092C23.6313 99.0114 24.1401 102.228 24.579 105.451C23.337 104.154 21.8058 103.281 20.0451 102.852C19.9902 102.837 19.9603 102.917 20.0152 102.932C21.8207 103.45 23.3769 104.463 24.6139 105.88C24.6239 105.89 24.6339 105.895 24.6438 105.899C24.7984 107.032 24.9381 108.169 25.0728 109.306C24.1151 108.488 23.0577 107.87 21.8956 107.391C21.8656 107.376 21.8457 107.426 21.8806 107.441C23.0627 107.944 24.1251 108.668 25.0628 109.546C25.0778 109.556 25.0877 109.556 25.1027 109.561C25.2274 110.643 25.3571 111.72 25.4668 112.808C23.7211 110.708 21.5664 109.186 19.0176 108.204C18.9677 108.184 18.9428 108.259 18.9877 108.284C21.4666 109.361 23.6513 111.072 25.3421 113.177C25.387 113.237 25.4469 113.241 25.5017 113.227C25.6663 114.887 25.811 116.553 25.9357 118.219C25.9357 118.244 25.9756 118.244 25.9756 118.219C25.8808 116.513 25.7611 114.808 25.6214 113.102H25.6264Z" fill="white"/>
<path d="M19.5167 87.2701C18.1999 86.3624 16.524 85.9783 14.9479 85.8436C14.908 85.8436 14.908 85.8985 14.9479 85.9035C16.5839 86.1479 17.9605 86.7414 19.4668 87.3799C19.5317 87.4098 19.5766 87.31 19.5217 87.2701H19.5167Z" fill="white"/>
<path d="M20.439 107.71C19.3966 107.082 18.2045 106.728 17.0074 106.538C16.9675 106.533 16.9625 106.598 17.0074 106.603C18.2194 106.822 19.2968 107.256 20.3991 107.795C20.444 107.82 20.4839 107.74 20.439 107.715V107.71Z" fill="white"/>
<path d="M47.025 94.2333C43.8528 96.4629 40.8103 99.0366 38.2216 101.929C35.4634 105.012 33.4533 108.513 32.0467 112.399C29.1688 120.359 27.5926 128.978 27.448 137.437C27.3682 142.181 27.7872 146.884 28.8047 151.518C28.8396 151.688 29.094 151.638 29.069 151.468C27.8271 143.313 27.872 134.993 29.2087 126.858C30.5155 118.873 32.5655 110.184 37.643 103.695C40.4063 100.164 43.8528 97.3806 47.2595 94.5077C47.439 94.358 47.2096 94.1086 47.025 94.2383V94.2333Z" fill="#EBEBEB"/>
<path d="M28.5704 131.687C28.5704 131.687 31.184 127.287 34.9847 123.487C38.7904 119.686 41.9925 116.983 42.4863 114.464C42.9801 111.95 38.6757 110.094 38.6757 110.094C38.6757 110.094 43.9378 111.037 45.3792 108.833C46.8207 106.623 47.514 93.8293 47.514 93.8293C47.514 93.8293 37.9375 100.668 33.4734 110.254C29.0093 119.841 28.5654 131.692 28.5654 131.692L28.5704 131.687Z" fill="#EBEBEB"/>
<path d="M44.2069 97.1062C40.1767 101.067 36.1217 105.281 33.7475 110.483C32.9345 112.264 32.2412 114.115 31.6327 116C31.6327 116 31.6327 116.005 31.6327 116.01C31.508 116.389 31.3883 116.763 31.2686 117.147C31.2586 117.167 31.2486 117.187 31.2486 117.207C30.0765 121.092 29.2485 125.108 28.5303 129.028C28.5303 129.053 28.5652 129.068 28.5702 129.043C28.9842 127.048 29.438 125.033 29.9468 123.023C29.9668 123.023 29.9817 123.023 30.0017 123.013C30.8147 122.669 31.6377 122.454 32.5155 122.374C32.5704 122.369 32.5704 122.27 32.5105 122.275C31.6626 122.314 30.8296 122.464 30.0266 122.728C30.4905 120.918 30.9942 119.107 31.5628 117.327C33.4133 116.873 35.3436 116.628 37.2439 116.584C37.2639 116.584 37.2689 116.554 37.2439 116.554C35.3286 116.464 33.528 116.628 31.6576 117.027C31.7574 116.723 31.8571 116.419 31.9619 116.115C33.2088 115.83 34.4657 115.591 35.7426 115.476C35.7675 115.476 35.7626 115.436 35.7426 115.436C34.4907 115.471 33.2587 115.601 32.0417 115.885C32.5604 114.344 33.124 112.823 33.7525 111.341C34.2712 110.114 34.8847 108.952 35.563 107.83C36.5855 107.601 37.5781 107.376 38.6305 107.281C38.6605 107.281 38.6555 107.231 38.6305 107.231C37.6779 107.172 36.6853 107.241 35.7626 107.516C36.2663 106.703 36.795 105.905 37.3636 105.132C39.5134 104.658 41.688 104.214 43.8827 104.628C43.9226 104.633 43.9325 104.573 43.8976 104.563C41.8077 104.014 39.7328 104.329 37.6479 104.743C37.8774 104.438 38.1068 104.144 38.3412 103.845C39.658 103.436 40.9698 103.241 42.3564 103.216C42.3863 103.216 42.3913 103.176 42.3564 103.171C41.0945 103.052 39.8326 103.171 38.6156 103.506C40.3912 101.301 42.3514 99.226 44.2917 97.1761C44.3814 97.0813 44.3116 97.0264 44.2168 97.1212L44.2069 97.1062Z" fill="white"/>
<path d="M44.0977 105.825C43.4692 105.76 42.8258 105.685 42.1924 105.76C42.1175 105.77 42.1225 105.895 42.1973 105.895C42.8258 105.915 43.4592 105.865 44.0877 105.9C44.1376 105.9 44.1426 105.83 44.0927 105.825H44.0977Z" fill="white"/>
<path d="M37.2039 118.24C36.1963 118.23 35.1938 118.499 34.2511 118.833C34.2262 118.843 34.2411 118.883 34.2661 118.873C35.2387 118.639 36.2263 118.549 37.2138 118.384C37.2936 118.369 37.2887 118.24 37.2039 118.24Z" fill="white"/>
<path d="M35.1393 113.95C34.7303 113.93 34.2914 114 33.8873 114.065C33.8474 114.07 33.8474 114.14 33.8873 114.14C34.2963 114.145 34.7403 114.159 35.1443 114.08C35.2141 114.065 35.2141 113.955 35.1393 113.95Z" fill="white"/>
<path d="M0.494 107.815C3.57645 108.888 6.63396 110.264 9.39719 112.005C12.34 113.865 14.779 116.23 16.814 119.048C20.9838 124.824 24.2508 131.437 26.3207 138.246C27.4829 142.066 28.2261 145.967 28.4804 149.952C28.4904 150.097 28.2759 150.117 28.256 149.972C27.3731 143.089 25.4129 136.365 22.4552 130.086C19.5523 123.926 15.8813 117.372 10.275 113.292C7.22252 111.072 3.79092 109.616 0.369305 108.08C0.189745 108 0.319427 107.745 0.498987 107.805L0.494 107.815Z" fill="#EBEBEB"/>
<path d="M24.0859 133.856C24.0859 133.856 20.9536 130.899 16.9983 128.704C13.0429 126.504 9.82083 125.058 8.84323 123.138C7.86064 121.217 10.9181 118.723 10.9181 118.723C10.9181 118.723 6.87804 120.703 5.20215 119.252C3.52626 117.796 0.00488281 107.601 0.00488281 107.601C0.00488281 107.601 9.33702 110.922 15.1627 117.646C20.9885 124.37 24.0909 133.861 24.0909 133.861L24.0859 133.856Z" fill="#EBEBEB"/>
<path d="M23.5969 131.752C18.9283 122.993 12.7036 115.067 4.16947 109.835C4.16947 109.835 4.1595 109.835 4.16947 109.84C6.41397 111.272 8.4839 112.923 10.4142 114.728C8.6884 114.678 6.92771 114.958 5.39647 115.786C5.36155 115.806 5.38649 115.85 5.42141 115.84C7.12723 115.262 8.76821 114.883 10.5838 114.968C10.6087 114.968 10.6237 114.958 10.6436 114.948C10.9479 115.237 11.2471 115.526 11.5414 115.821C10.6436 115.86 9.73584 115.985 8.86297 116.175C8.83804 116.18 8.84801 116.215 8.86796 116.21C9.81564 116.025 10.7384 115.965 11.701 115.975C13.2672 117.546 14.7236 119.227 16.1002 120.973C15.4768 120.883 14.8234 120.933 14.2248 121.108C14.1799 121.123 14.1899 121.182 14.2398 121.177C14.9181 121.093 15.5666 121.103 16.2399 121.147C16.4943 121.472 16.7536 121.796 17.003 122.125C15.0827 122.01 13.2023 122.195 11.3419 122.674C11.312 122.679 11.3219 122.724 11.3519 122.719C13.2772 122.34 15.2124 122.22 17.1676 122.34C17.407 122.654 17.6315 122.978 17.8659 123.297C16.7187 123.262 15.6114 123.407 14.4942 123.681C14.4493 123.691 14.4643 123.756 14.5091 123.751C15.6563 123.492 16.8235 123.422 18.0006 123.477C19.0031 124.858 19.9658 126.275 20.8885 127.706C20.3997 127.607 19.886 127.662 19.4071 127.796C19.3822 127.801 19.3872 127.841 19.4171 127.836C19.9658 127.771 20.4795 127.841 21.0182 127.911C21.8512 129.203 22.6542 130.51 23.4223 131.826C23.4871 131.936 23.6667 131.856 23.6069 131.737L23.5969 131.752Z" fill="white"/>
<path d="M16.3397 124.489C15.4269 124.409 14.4992 124.554 13.6263 124.818C13.6014 124.828 13.6064 124.863 13.6363 124.858C14.5341 124.694 15.4219 124.629 16.3297 124.584C16.3896 124.584 16.3995 124.494 16.3347 124.489H16.3397Z" fill="white"/>
<path d="M8.19968 113.81C7.7857 113.765 7.35675 113.815 6.94775 113.885C6.89787 113.895 6.91283 113.965 6.96271 113.96C7.37171 113.915 7.78071 113.93 8.18971 113.92C8.25455 113.92 8.26951 113.82 8.19968 113.815V113.81Z" fill="white"/>
<path d="M36.121 162.825H15.0576L18.0603 140.824L18.8284 135.183H32.3502L33.1184 140.824L36.121 162.825Z" fill="#DBDBDB"/>
<path d="M33.1187 140.824H18.0605L18.8287 135.183H32.3505L33.1187 140.824Z" fill="#C7C7C7"/>
<path d="M34.281 133.228H16.8936V138.006H34.281V133.228Z" fill="#DBDBDB"/>
<path d="M1.66602 162.826L39.5781 162.701L77.4902 162.661L153.314 162.577L229.139 162.656L267.051 162.701L304.963 162.826L267.051 162.946L229.139 162.991L153.314 163.075L77.4902 162.991L39.5781 162.946L1.66602 162.826Z" fill="#263238"/>
<path d="M154.312 200C233.299 200 297.331 192.983 297.331 184.328C297.331 175.673 233.299 168.657 154.312 168.657C75.324 168.657 11.292 175.673 11.292 184.328C11.292 192.983 75.324 200 154.312 200Z" fill="#EBEBEB"/>
<path d="M121.018 181.729C119.856 182.123 86.5325 182.238 85.2557 181.44C84.7718 181.141 84.4726 176.287 84.2731 170.412C84.2282 169.145 84.1933 167.833 84.1633 166.501L81.46 148.725L103.735 148.58L105.84 166.357L105.755 170.267C105.755 170.267 118.534 175.928 119.836 176.956C121.133 177.983 122.175 181.325 121.013 181.719L121.018 181.729Z" fill="#EB9481"/>
<path d="M121.019 181.729C119.857 182.123 86.5331 182.238 85.2563 181.44C84.6677 181.071 84.3485 173.983 84.1689 166.506L105.846 166.367L105.761 170.277C105.761 170.277 118.54 175.938 119.842 176.966C121.138 177.993 122.181 181.335 121.019 181.729Z" fill="white"/>
<path d="M121.018 181.729C119.856 182.123 86.5329 182.238 85.256 181.44C84.7722 181.14 84.4729 176.287 84.2734 170.412L105.761 170.272C105.761 170.272 118.539 175.933 119.841 176.961C121.138 177.988 122.181 181.33 121.018 181.724V181.729Z" fill="#A6A6A6"/>
<path d="M120.534 180.397C114.948 180.278 92.403 180.333 86.8716 180.642C86.8267 180.642 86.8267 180.677 86.8716 180.677C92.408 180.916 114.948 180.677 120.534 180.487C120.654 180.487 120.654 180.397 120.534 180.397Z" fill="#263238"/>
<path d="M117.696 175.774C116.37 175.724 115.078 176.357 114.359 177.15C113.666 177.908 113.078 178.981 113.123 180.138C113.123 180.173 113.187 180.173 113.192 180.138C113.502 177.948 115.487 176.023 117.701 175.843C117.746 175.843 117.746 175.774 117.701 175.774H117.696Z" fill="#263238"/>
<path d="M107.93 170.826C105.696 170.801 103.107 171.599 101.72 173.434C101.666 173.504 101.77 173.579 101.835 173.544C103.855 172.497 105.771 171.714 107.97 171.1C108.125 171.055 108.09 170.826 107.93 170.826Z" fill="#263238"/>
<path d="M109.662 171.494C107.427 171.469 104.838 172.267 103.452 174.103C103.397 174.172 103.502 174.247 103.567 174.212C105.582 173.165 107.502 172.382 109.702 171.768C109.856 171.723 109.821 171.494 109.662 171.494Z" fill="#263238"/>
<path d="M111.387 172.163C109.153 172.138 106.564 172.936 105.177 174.771C105.123 174.841 105.227 174.916 105.292 174.881C107.307 173.833 109.228 173.05 111.427 172.437C111.582 172.392 111.547 172.163 111.387 172.163Z" fill="#263238"/>
<path d="M113.118 172.826C110.883 172.801 108.295 173.599 106.908 175.434C106.853 175.504 106.958 175.579 107.023 175.544C109.038 174.497 110.958 173.714 113.158 173.1C113.312 173.055 113.277 172.826 113.118 172.826Z" fill="#263238"/>
<path d="M88.2783 175.335C85.7695 175.35 85.7894 179.25 88.3032 179.235C90.8121 179.22 90.7921 175.32 88.2783 175.335Z" fill="#263238"/>
<path d="M110.325 164.85C109.187 163.918 107.766 164.84 107.073 165.813C105.95 167.394 105.177 169.609 105.062 171.539C105.062 171.589 105.097 171.604 105.132 171.604C105.182 171.763 105.372 171.898 105.536 171.783C107.122 170.676 108.958 169.689 110.16 168.127C110.863 167.215 111.402 165.733 110.325 164.85ZM107.601 169.614C106.833 170.177 106.045 170.701 105.297 171.29C105.691 170.172 106.035 169.045 106.544 167.973C106.788 167.459 107.043 166.935 107.357 166.461C107.841 165.723 110.03 163.843 110.26 166.277C110.389 167.619 108.519 168.94 107.601 169.614Z" fill="#263238"/>
<path d="M99.511 172.392C101.461 172.686 103.466 172.123 105.377 171.818C105.576 171.789 105.621 171.559 105.541 171.409C105.571 171.384 105.581 171.35 105.546 171.315C104.125 170.008 102.035 168.945 100.129 168.581C98.9524 168.357 97.2865 168.681 97.1169 170.143C96.9573 171.524 98.3738 172.217 99.511 172.387V172.392ZM98.1543 171.12C96.633 169.21 99.511 169.045 100.374 169.24C100.928 169.369 101.476 169.564 102.005 169.768C103.117 170.192 104.145 170.766 105.207 171.295C104.259 171.384 103.327 171.559 102.384 171.684C101.257 171.833 98.9923 172.178 98.1543 171.12Z" fill="#263238"/>
<path d="M48.7305 66.5714C48.7305 66.5714 74.6021 110.584 75.2954 113.671C76.3578 118.419 82.004 165.309 82.004 165.309L108.923 164.826C108.923 164.826 104.284 123.482 99.8901 109.86C96.7229 100.049 73.8938 67.5091 73.8938 67.5091L48.7355 66.5664L48.7305 66.5714Z" fill="#37474F"/>
<path d="M106.474 160.7C102.608 160.67 88.9067 160.516 83.7643 161C83.7244 161 83.7244 161.069 83.7643 161.074C85.535 161.329 102.613 160.935 106.474 160.81C106.548 160.81 106.543 160.705 106.474 160.705V160.7Z" fill="#263238"/>
<path d="M53.1447 70.6113C54.8406 73.2697 56.6312 75.8734 58.3619 78.5119C60.0977 81.1504 61.8235 83.789 63.5293 86.4475C66.9359 91.7545 70.2578 97.1163 73.5148 102.513C75.0411 105.042 76.4975 107.601 77.5499 110.359C78.5874 113.092 79.2956 115.94 79.8194 118.808C80.3481 121.696 80.6922 124.614 81.0214 127.532C81.3706 130.639 81.7147 133.742 82.0639 136.849C82.7721 143.203 83.4804 149.558 84.1936 155.912C84.2784 156.69 84.3682 157.473 84.443 158.252C84.453 158.366 84.2485 158.386 84.2335 158.271C83.4405 151.957 82.7821 145.627 82.0639 139.303C81.7047 136.156 81.3456 133.008 80.9915 129.861C80.6573 126.933 80.3431 124.005 79.8892 121.093C79.4453 118.235 78.8617 115.387 77.9938 112.618C77.0861 109.725 75.7942 107.012 74.2729 104.384C71.1556 99.0017 67.8537 93.7146 64.5518 88.4376C61.2199 83.1156 57.8632 77.8136 54.3767 72.5864C53.9477 71.943 53.5138 71.2996 53.0649 70.6661C53.03 70.6162 53.1148 70.5714 53.1497 70.6212L53.1447 70.6113Z" fill="#263238"/>
<path d="M57.2095 184.328C55.9825 184.253 24.2901 171.415 23.4073 170.198C23.3774 170.158 23.3624 170.078 23.3574 169.963C23.3624 168.876 25.557 165.06 27.3925 160.052C27.5073 159.733 28.3252 158.247 29.4625 156.242C32.5848 150.74 38.1063 141.318 38.1063 141.318L58.8205 149.548L48.9048 164.392L47.3636 167.983C47.3636 167.983 57.0848 178.028 57.9078 179.47C58.7258 180.906 58.4365 184.398 57.2145 184.328H57.2095Z" fill="#EB9481"/>
<path d="M57.2095 184.328C55.9825 184.253 24.2901 171.415 23.4073 170.198C23.3774 170.158 23.3624 170.078 23.3574 169.963C23.3624 168.876 25.557 165.06 27.3925 160.053C27.5073 159.733 28.3252 158.247 29.4625 156.242L48.9048 164.387L47.3636 167.978C47.3636 167.978 57.0848 178.024 57.9078 179.465C58.7258 180.902 58.4365 184.393 57.2145 184.323L57.2095 184.328Z" fill="white"/>
<path d="M57.2095 184.323C55.9825 184.253 24.2952 171.41 23.4123 170.193C23.0782 169.734 24.4947 165.405 27.3976 160.053L47.3637 167.983C47.3637 167.983 57.0848 178.024 57.9078 179.465C58.7258 180.902 58.4365 184.393 57.2095 184.323Z" fill="#A6A6A6"/>
<path d="M57.2591 182.912C52.1266 180.707 31.2079 172.298 25.9657 170.512C25.9209 170.497 25.9109 170.527 25.9508 170.547C30.9934 172.842 51.977 181.081 57.2242 183.002C57.3339 183.042 57.3688 182.962 57.2591 182.917V182.912Z" fill="#263238"/>
<path d="M56.3613 177.56C55.1493 177.016 53.7178 177.121 52.7501 177.585C51.8224 178.029 50.8747 178.797 50.4807 179.889C50.4707 179.919 50.5256 179.944 50.5455 179.914C51.6528 178.004 54.2165 176.961 56.3363 177.625C56.3812 177.64 56.4012 177.58 56.3613 177.56Z" fill="#263238"/>
<path d="M49.1641 169.305C47.0992 168.447 44.4008 168.213 42.4306 169.395C42.3558 169.44 42.4207 169.549 42.4955 169.539C44.7599 169.325 46.8299 169.32 49.0993 169.574C49.2589 169.594 49.3138 169.365 49.1641 169.305Z" fill="#263238"/>
<path d="M50.5157 170.572C48.4508 169.709 45.7524 169.48 43.7822 170.662C43.7074 170.707 43.7722 170.816 43.847 170.806C46.1115 170.592 48.1814 170.587 50.4509 170.841C50.6105 170.861 50.6653 170.632 50.5157 170.572Z" fill="#263238"/>
<path d="M51.8722 171.839C49.8072 170.981 47.1088 170.747 45.1387 171.929C45.0638 171.974 45.1287 172.083 45.2035 172.073C47.4679 171.859 49.5379 171.854 51.8073 172.108C51.9669 172.128 52.0218 171.899 51.8722 171.839Z" fill="#263238"/>
<path d="M53.2237 173.106C51.1588 172.243 48.4604 172.013 46.4902 173.196C46.4154 173.24 46.4802 173.35 46.5551 173.34C48.8195 173.126 50.8894 173.121 53.1589 173.375C53.3185 173.395 53.3734 173.166 53.2237 173.106Z" fill="#263238"/>
<path d="M29.2577 166.113C26.9284 165.185 25.4819 168.806 27.8162 169.734C30.1455 170.662 31.592 167.041 29.2577 166.113Z" fill="#263238"/>
<path d="M53.6284 164.666C52.9251 163.375 51.2642 163.694 50.2516 164.342C48.6157 165.385 47.0744 167.15 46.2415 168.896C46.2215 168.941 46.2465 168.971 46.2814 168.981C46.2664 169.145 46.3911 169.345 46.5856 169.3C48.471 168.871 50.5459 168.642 52.2418 167.649C53.2343 167.066 54.2917 165.893 53.6284 164.671V164.666ZM49.3139 168.058C48.3912 168.293 47.4635 168.482 46.5457 168.746C47.3288 167.859 48.072 166.946 48.9498 166.138C49.3688 165.754 49.8027 165.365 50.2666 165.041C50.9898 164.537 53.7231 163.619 53.0248 165.958C52.6408 167.25 50.4113 167.774 49.309 168.053L49.3139 168.058Z" fill="#263238"/>
<path d="M40.7744 167.599C42.4702 168.602 44.5401 168.831 46.4255 169.27C46.62 169.315 46.7497 169.121 46.7347 168.956C46.7697 168.946 46.7946 168.916 46.7747 168.871C45.9467 167.125 44.4104 165.355 42.7745 164.307C41.7669 163.659 40.101 163.335 39.3977 164.622C38.7294 165.844 39.7818 167.016 40.7744 167.599ZM39.9963 165.913C39.303 163.569 42.0363 164.497 42.7595 165.006C43.2234 165.33 43.6573 165.719 44.0763 166.108C44.9491 166.916 45.6873 167.834 46.4704 168.722C45.5576 168.452 44.6299 168.263 43.7072 168.023C42.6099 167.739 40.3803 167.205 40.0012 165.913H39.9963Z" fill="#263238"/>
<path d="M50.5056 163.559L27.3174 154.197C27.3174 154.197 56.0669 111.93 56.2764 108.783C56.466 105.995 43.8369 81.7442 43.3381 74.6765C42.7995 67.0502 46.4754 61.1447 50.5106 57.4836L74.4319 67.6487C74.4319 67.6487 71.9081 71.6888 67.9329 73.9333C67.9329 73.9333 80.1978 101.965 79.5045 110.584C78.8062 119.247 50.5056 163.559 50.5056 163.559Z" fill="#37474F"/>
<path d="M51.5329 159.15C48.1811 157.708 49.1637 158.072 45.7919 156.671C44.141 155.982 33.3075 151.478 31.6566 151.109C31.6216 151.099 31.5967 151.159 31.6266 151.179C33.0681 152.062 43.9814 156.376 45.6473 157.035C49.044 158.371 48.0813 157.953 51.493 159.254C51.5578 159.279 51.5977 159.184 51.5329 159.155V159.15Z" fill="#263238"/>
<path d="M71.8684 73.4244C69.3745 73.9581 66.9305 74.841 64.5813 75.7886C64.4915 75.8236 64.5314 75.9632 64.6311 75.9333C67.0752 75.22 69.5641 74.5517 71.9632 73.7087C72.1527 73.6439 72.0579 73.3845 71.8684 73.4244Z" fill="#263238"/>
<path d="M69.0303 72.4418C68.7958 72.8508 68.5963 73.2847 68.4168 73.7236C68.2771 74.0628 68.1025 74.4269 68.1025 74.796C68.1025 74.8658 68.1973 74.8858 68.2422 74.8409C68.5215 74.5666 68.6662 74.1675 68.8407 73.8284C69.0452 73.4343 69.2547 73.0403 69.4492 72.6413C69.5789 72.3769 69.1699 72.1874 69.0253 72.4368L69.0303 72.4418Z" fill="#263238"/>
<path d="M69.3198 70.1923C69.4645 69.8232 69.6141 69.4591 69.7687 69.09C69.9283 68.711 70.1129 68.3419 70.2476 67.9528C70.2675 67.893 70.3673 67.9329 70.3423 67.9927C70.1977 68.3618 70.1029 68.7559 69.9832 69.1349C69.8635 69.514 69.7438 69.8931 69.6141 70.2721C69.3797 70.9754 69.0954 71.6737 68.7911 72.352C69.1802 72.3471 69.5842 72.3321 69.9383 72.1525C70.3224 71.958 70.5568 71.549 70.7463 71.1799C70.9558 70.7659 71.1503 70.347 71.3698 69.938C71.6092 69.4841 71.8736 69.0402 72.0332 68.5514C72.0531 68.4915 72.1479 68.5314 72.1279 68.5913C71.7688 69.5988 71.4147 70.6113 70.8511 71.539C70.6316 71.9031 70.4521 72.2872 70.048 72.4269C69.6141 72.5815 69.1353 72.5516 68.6814 72.5166C68.6265 72.5316 68.5517 72.4967 68.5717 72.4269C68.7861 71.6737 69.0255 70.9106 69.3198 70.1824V70.1923Z" fill="#263238"/>
<path d="M68.3016 74.851C69.1495 76.6516 69.8977 78.4472 70.6957 80.2428C71.4738 81.9985 72.197 83.7741 72.9053 85.5548C74.3318 89.1609 75.6087 92.8319 76.7309 96.5429C77.2846 98.3784 77.7983 100.229 78.2572 102.089C78.721 103.955 79.1699 105.84 79.3645 107.76C79.559 109.686 79.4193 111.586 78.8856 113.446C78.342 115.332 77.6237 116.983 76.7758 118.748C76.2571 119.826 76.0775 119.681 76.3269 119.137C77.0402 117.591 78.9106 112.908 78.7759 108.972C78.7111 107.072 78.322 105.202 77.8931 103.356C77.4541 101.471 76.9604 99.6004 76.4217 97.7449C75.3593 94.0839 74.0974 90.4977 72.8005 86.9164C72.0723 84.9113 71.2942 82.9262 70.556 80.9211C69.8129 78.9061 69.0447 77.0905 68.2218 74.8859C68.2018 74.8261 68.2866 74.7961 68.3115 74.851H68.3016Z" fill="#263238"/>
<path d="M50.7004 68.8956C51.1144 68.741 51.693 68.9954 52.1169 69.0652C52.6606 69.155 53.2093 69.2098 53.7579 69.2298C54.3016 69.2497 54.8452 69.2298 55.3889 69.1749C55.9276 69.125 56.4812 69.0552 56.9501 68.7609C57.7431 68.2672 58.4015 67.3993 58.9402 66.6461C59.5288 65.8231 60.1423 64.8755 60.4914 63.9228C60.5114 63.8629 60.5962 63.9028 60.5812 63.9627C60.4066 64.5163 60.2769 65.08 60.0525 65.6236C59.843 66.1324 59.5737 66.6212 59.2894 67.095C58.7557 67.9729 58.1422 68.9156 57.2244 69.4393C56.2618 69.9879 55.0248 69.953 53.9524 69.8932C53.3339 69.8583 52.7155 69.7735 52.107 69.6488C51.668 69.554 50.9298 69.4842 50.6505 69.1001C50.6006 69.0303 50.6256 68.9255 50.7104 68.8956H50.7004Z" fill="#263238"/>
<path d="M33.9355 149.777C37.7462 144.012 41.487 138.196 45.158 132.34C48.839 126.47 52.4552 120.554 56.0214 114.609C56.8743 113.187 57.8569 111.766 58.4056 110.189C59.0041 108.479 58.665 106.818 58.1213 105.142C57.1287 102.069 55.8967 99.0817 54.56 96.1439C53.2233 93.1961 51.7818 90.2982 50.3653 87.3903C48.9587 84.5074 47.4674 81.6095 46.4 78.5769C45.3825 75.679 44.9935 72.6764 45.7765 69.6737C46.5496 66.6911 48.2255 64.0176 49.9762 61.5187C50.4401 60.8603 50.909 60.2069 51.3728 59.5485C51.4077 59.4987 51.4826 59.5585 51.4476 59.6084C49.5174 62.212 47.637 64.9703 46.5047 68.0278C45.9461 69.5391 45.582 71.1302 45.5471 72.7412C45.5122 74.3772 45.8164 76.0032 46.3003 77.5644C47.238 80.597 48.7193 83.4699 50.1009 86.318C51.5125 89.2308 52.9589 92.1237 54.3206 95.0615C55.6873 98.0143 56.9691 101.017 58.0215 104.099C58.4904 105.471 59.0141 106.908 58.9792 108.379C58.9443 109.99 58.1762 111.441 57.3781 112.798C53.9116 118.714 50.3104 124.549 46.6693 130.355C43.0133 136.181 39.2824 141.967 35.4917 147.708C35.0129 148.431 34.5341 149.154 34.0553 149.877C33.9954 149.967 33.8657 149.862 33.9256 149.772L33.9355 149.777Z" fill="#263238"/>
<path d="M75.759 40.7645C77.9187 45.5029 88.822 52.0319 93.9295 52.7352C97.6055 53.239 108.763 53.4136 112.589 52.83C117.073 52.1467 113.646 40.0463 110.998 40.3555C103.716 41.2085 97.5307 42.1561 95.5904 42.1561C93.2162 42.1561 80.3727 38.0312 78.8215 37.4527C75.0358 36.0311 74.532 38.0811 75.759 40.7645Z" fill="#EB9481"/>
<path d="M75.8289 42.0212C78.5622 46.0663 87.65 52.6801 87.65 52.6801L88.9119 49.887L93.0867 40.6546C93.0867 40.6546 84.7421 38.021 79.2506 36.8489C78.5074 36.6893 77.854 36.5945 77.2854 36.5696C73.779 36.3801 73.4747 38.5497 75.8339 42.0262L75.8289 42.0212Z" fill="#FF9A27"/>
<path d="M75.8289 42.0213C78.5622 46.0664 87.65 52.6802 87.65 52.6802L88.9119 49.8871C85.5252 45.9517 80.293 39.9913 77.2854 36.5647C73.779 36.3752 73.4747 38.5449 75.8339 42.0213H75.8289Z" fill="#263238"/>
<path d="M86.0092 50.8098C86.7025 49.1139 89.7849 42.2657 90.553 40.8292C90.6079 40.7295 90.6827 40.7395 90.6378 40.8492C88.6826 45.9816 86.8371 49.2037 86.074 50.8347C86.0541 50.8746 85.9892 50.8547 86.0042 50.8098H86.0092Z" fill="#263238"/>
<path d="M109.666 40.4901C114.1 39.9065 119.582 38.914 124.22 40.8841C125.133 41.2682 125.462 41.9515 125.462 41.9515C127.557 42.7994 127.787 44.0414 127.787 44.0414C129.498 45.428 129.557 46.7348 129.557 46.7348C129.557 46.7348 132.006 47.7573 131.637 49.3384C131.228 51.1141 127.867 49.3384 125.418 49.4831C119.811 49.8272 111.936 51.8872 110.329 52.1515L109.661 40.4951L109.666 40.4901Z" fill="#EB9481"/>
<path d="M119.288 45.7174C120.938 45.6476 122.559 45.5378 124.215 45.6924C126.031 45.862 127.747 46.3309 129.502 46.7648C129.557 46.7798 129.582 46.705 129.527 46.68C126.465 45.3932 122.54 45.054 119.283 45.6426C119.203 45.6575 119.203 45.7224 119.283 45.7174H119.288Z" fill="#263238"/>
<path d="M118.589 42.3605C120.2 42.3804 123.033 42.4403 127.772 44.0913C127.787 44.0962 127.802 44.0713 127.787 44.0663C124.854 42.5849 121.846 42.0562 118.594 42.2857C118.494 42.2907 118.484 42.3605 118.594 42.3605H118.589Z" fill="#263238"/>
<path d="M118.246 40.5551C120.984 40.6948 122.695 41.1337 125.448 41.9616C125.463 41.9616 125.478 41.9417 125.458 41.9317C122.425 40.6598 121.184 40.5451 118.236 40.4603C118.136 40.4603 118.136 40.5501 118.246 40.5551Z" fill="#263238"/>
<path d="M118.689 50.326C117.975 50.6602 118.145 51.0343 119.512 51.3535C120.888 51.6777 126.534 51.7625 126.335 53.7327C126.14 55.7129 118.15 55.4585 115.92 54.7602C113.691 54.0669 110.329 52.1466 110.329 52.1466C111.895 51.8822 115.626 50.8797 118.689 50.326Z" fill="#EB9481"/>
<path d="M81.6895 48.321C81.6546 49.1739 81.5698 50.0418 81.4501 50.8996C81.4601 50.8697 81.475 50.8398 81.485 50.8099C81.6496 50.361 81.8142 49.9021 82.0137 49.4682C82.0237 49.4432 82.0636 49.4532 82.0586 49.4781C81.9688 49.947 81.8042 50.4208 81.6247 50.8647C81.5399 51.0792 81.4501 51.2887 81.3603 51.4982C81.3004 51.8822 81.2306 52.2613 81.1508 52.6354C81.0012 53.3486 80.3278 56.3812 80.1782 56.895C80.1483 57.0047 80.0186 56.9798 80.0236 56.86C80.0585 56.3014 80.6271 53.1392 80.7418 52.4259C80.9613 51.0543 81.2655 49.6527 81.6296 48.311C81.6396 48.2811 81.6845 48.296 81.6845 48.326L81.6895 48.321Z" fill="#263238"/>
<path d="M76.492 70.9954C75.1603 71.6838 73.4445 72.7462 65.7134 71.2199C65.2296 71.1201 64.7458 71.0054 64.257 70.8608C57.0098 68.6811 48.3111 60.157 47.8223 59.5585C47.8223 59.5585 59.3341 40.8892 74.063 35.0186C75.8835 34.2954 78.8961 35.6919 80.567 37.4327C81.1606 38.0562 82.4574 42.6349 81.9586 46.3458C81.4599 50.0518 77.8288 70.3171 76.487 70.9954H76.492Z" fill="#FF9A27"/>
<path d="M75.465 46.1764C75.5049 46.5754 75.475 46.9694 75.4251 47.3585C75.3653 47.7475 75.2905 48.1316 75.1408 48.5057C75.0959 48.1067 75.1308 47.7126 75.1807 47.3236C75.2406 46.9345 75.3154 46.5505 75.465 46.1764Z" fill="white"/>
<path d="M70.4426 58.8901C70.4825 59.2892 70.4525 59.6832 70.4027 60.0722C70.3428 60.4613 70.268 60.8453 70.1184 61.2194C70.0735 60.8204 70.1084 60.4264 70.1583 60.0373C70.2181 59.6483 70.2929 59.2642 70.4426 58.8901Z" fill="white"/>
<path d="M61.9084 49.2838C61.9483 49.6828 61.9184 50.0769 61.8685 50.4659C61.8086 50.855 61.7338 51.239 61.5842 51.6131C61.5393 51.2141 61.5742 50.8201 61.6241 50.431C61.6839 50.042 61.7588 49.6579 61.9084 49.2838Z" fill="white"/>
<path d="M78.7521 58.2467C78.792 58.6457 78.7621 59.0398 78.7122 59.4288C78.6524 59.8179 78.5776 60.2019 78.4279 60.576C78.383 60.177 78.418 59.7829 78.4678 59.3939C78.5277 59.0048 78.6025 58.6208 78.7521 58.2467Z" fill="white"/>
<path d="M67.7939 47.6327C68.193 47.5928 68.587 47.6228 68.976 47.6727C69.3651 47.7325 69.7492 47.8073 70.1232 47.957C69.7242 48.0018 69.3302 47.9669 68.9411 47.9171C68.5521 47.8572 68.168 47.7824 67.7939 47.6327Z" fill="white"/>
<path d="M58.1074 56.8202C58.5064 56.7803 58.9005 56.8103 59.2895 56.8602C59.6786 56.92 60.0626 56.9948 60.4367 57.1445C60.0377 57.1893 59.6437 57.1544 59.2546 57.1046C58.8656 57.0447 58.4815 56.9699 58.1074 56.8202Z" fill="white"/>
<path d="M69.5 66.761C69.899 66.7211 70.2931 66.7511 70.6821 66.8009C71.0712 66.8608 71.4552 66.9356 71.8293 67.0852C71.4303 67.1301 71.0362 67.0952 70.6472 67.0453C70.2581 66.9855 69.8741 66.9107 69.5 66.761Z" fill="white"/>
<path d="M55.1201 63.1497C55.5191 63.1098 55.9132 63.1397 56.3022 63.1896C56.6913 63.2495 57.0753 63.3243 57.4494 63.4739C57.0504 63.5188 56.6564 63.4839 56.2673 63.434C55.8783 63.3742 55.4942 63.2993 55.1201 63.1497Z" fill="white"/>
<path d="M75.3906 37.2432C75.7896 37.2033 76.1837 37.2332 76.5727 37.2831C76.9618 37.343 77.3458 37.4178 77.7199 37.5674C77.3209 37.6123 76.9269 37.5774 76.5378 37.5275C76.1488 37.4677 75.7647 37.3929 75.3906 37.2432Z" fill="white"/>
<path d="M72.5717 40.4254C72.3173 40.7396 72.0181 40.994 71.7088 41.2334C71.3946 41.4679 71.0704 41.6823 70.6963 41.8419C70.9507 41.5277 71.2499 41.2733 71.5592 41.0339C71.8734 40.7995 72.2026 40.585 72.5717 40.4254Z" fill="white"/>
<path d="M57.2143 49.4633C56.9599 49.7775 56.6606 50.0319 56.3514 50.2713C56.0372 50.5057 55.713 50.7202 55.3389 50.8798C55.5932 50.5656 55.8925 50.3112 56.2018 50.0718C56.516 49.8423 56.8452 49.6229 57.2143 49.4633Z" fill="white"/>
<path d="M76.393 53.5482C76.1386 53.8624 75.8393 54.1168 75.5301 54.3562C75.2159 54.5907 74.8917 54.8051 74.5176 54.9647C74.772 54.6505 75.0712 54.3961 75.3805 54.1567C75.6947 53.9273 76.0239 53.7078 76.393 53.5482Z" fill="white"/>
<path d="M63.9731 61.3691C63.7187 61.6834 63.4194 61.9377 63.1102 62.1772C62.7959 62.4116 62.4717 62.6261 62.0977 62.7857C62.352 62.4714 62.6513 62.2171 62.9605 61.9777C63.2748 61.7432 63.604 61.5287 63.9731 61.3691Z" fill="white"/>
<path d="M81.1508 42.8594C80.8964 43.1736 80.5972 43.428 80.2879 43.6674C79.9737 43.9018 79.6495 44.1163 79.2754 44.2759C79.5298 43.9617 79.829 43.7073 80.1383 43.4679C80.4525 43.2384 80.7817 43.019 81.1508 42.8594Z" fill="white"/>
<path d="M80.8872 51.9274C80.573 51.673 80.3186 51.3738 80.0792 51.0645C79.8448 50.7503 79.6303 50.4261 79.4707 50.052C79.7849 50.3064 80.0393 50.6056 80.2787 50.9149C80.5082 51.2291 80.7276 51.5583 80.8872 51.9274Z" fill="white"/>
<path d="M53.2095 58.1669C52.8953 57.9125 52.6409 57.6133 52.4015 57.304C52.1671 56.9898 51.9526 56.6656 51.793 56.2915C52.1072 56.5459 52.3616 56.8451 52.601 57.1544C52.8304 57.4686 53.0499 57.7978 53.2095 58.1669Z" fill="white"/>
<path d="M77.5249 65.5987C77.2107 65.3443 76.9563 65.045 76.7169 64.7358C76.4825 64.4216 76.268 64.0974 76.1084 63.7233C76.4226 63.9776 76.677 64.2769 76.9164 64.5862C77.1459 64.9004 77.3653 65.2296 77.5249 65.5987Z" fill="white"/>
<path d="M65.3394 44.4257C65.0251 44.1713 64.7708 43.8721 64.5314 43.5628C64.2969 43.2486 64.0825 42.9244 63.9229 42.5503C64.2371 42.8047 64.4915 43.1039 64.7309 43.4132C64.9603 43.7274 65.1798 44.0566 65.3394 44.4257Z" fill="white"/>
<path d="M65.5542 69.8283C65.24 69.5739 64.9856 69.2746 64.7462 68.9654C64.5118 68.6512 64.2973 68.327 64.1377 67.9529C64.4519 68.2073 64.7063 68.5065 64.9457 68.8158C65.1752 69.13 65.3946 69.4592 65.5542 69.8283Z" fill="white"/>
<path d="M67.6245 54.8401C67.3103 54.5857 67.0559 54.2865 66.8165 53.9772C66.5821 53.663 66.3676 53.3388 66.208 52.9647C66.5222 53.2191 66.7766 53.5184 67.016 53.8276C67.2455 54.1418 67.4649 54.471 67.6245 54.8401Z" fill="white"/>
<path d="M77.8639 42.4003C75.9885 42.0512 74.2178 38.1657 73.9933 35.5521C73.9784 35.3725 74.8712 33.951 75.8737 32.1704C76.4773 31.088 77.1257 29.866 77.6344 28.7139C77.7392 28.4744 78.3527 29.2675 78.3527 29.2675L79.6894 30.29L84.1036 33.6767C84.1036 33.6767 82.318 35.7865 81.4401 37.8066C81.3703 37.9762 81.3154 38.1408 81.2805 38.3054C81.2755 38.3303 81.2705 38.3552 81.2556 38.3902C81.0062 39.3578 79.6645 42.7445 77.8539 42.4053L77.8639 42.4003Z" fill="#EB9481"/>
<path d="M81.2909 38.3055C81.2909 38.3055 81.2809 38.3554 81.2659 38.3903C81.0265 38.3205 80.7721 38.2257 80.5028 38.101C75.6696 35.8365 77.7994 29.3574 77.7994 29.3574L79.6898 30.2951L84.104 33.6818C84.104 33.6818 82.3183 35.7917 81.4405 37.8117C81.3707 37.9813 81.3158 38.1459 81.2809 38.3105L81.2909 38.3055Z" fill="#263238"/>
<path d="M89.1807 19.8751C89.1807 19.8751 91.3902 21.2767 91.4052 23.7706C91.4202 26.2645 90.4276 28.7035 90.1982 28.7883C89.9687 28.8731 89.1856 19.8751 89.1856 19.8751H89.1807Z" fill="#263238"/>
<path d="M78.2177 21.1671C76.8909 23.7907 76.9558 32.0405 78.6167 34.1653C81.0208 37.2477 85.6495 38.3101 88.4476 35.2626C91.156 32.3098 90.8816 21.5562 88.9613 19.5511C86.1383 16.5983 80.1829 17.2966 78.2227 21.1671H78.2177Z" fill="#EB9481"/>
<path d="M85.2591 27.781C85.2591 27.781 85.2142 27.8109 85.2192 27.8309C85.2491 28.3945 85.1892 29.0429 84.6855 29.2424C84.6705 29.2474 84.6705 29.2773 84.6905 29.2724C85.3089 29.1726 85.3788 28.3097 85.2591 27.781Z" fill="#263238"/>
<path d="M84.7458 27.2023C83.838 27.1524 83.8131 28.973 84.651 29.0129C85.479 29.0578 85.5039 27.2422 84.7458 27.2023Z" fill="#263238"/>
<path d="M88.337 27.7609C88.337 27.7609 88.3819 27.7858 88.3819 27.8107C88.357 28.3744 88.4168 29.0228 88.9256 29.2173C88.9405 29.2223 88.9405 29.2522 88.9206 29.2472C88.3021 29.1525 88.2223 28.2896 88.342 27.7609H88.337Z" fill="#263238"/>
<path d="M88.8508 27.1774C89.7586 27.1225 89.7985 28.9381 88.9606 28.9879C88.1326 29.0378 88.0927 27.2223 88.8508 27.1774Z" fill="#263238"/>
<path d="M84.1778 25.8206C84.4272 25.7607 84.6466 25.666 84.8861 25.5862C85.1554 25.4914 85.3798 25.4465 85.5594 25.2071C85.6542 25.0774 85.6192 24.848 85.5045 24.7432C85.2352 24.4988 84.8761 24.5288 84.5469 24.6285C84.1878 24.7382 83.9384 24.9128 83.7289 25.2221C83.5244 25.5213 83.8486 25.9004 84.1728 25.8256L84.1778 25.8206Z" fill="#263238"/>
<path d="M89.4793 26.6288C89.2299 26.5839 89.0054 26.4991 88.761 26.4293C88.4867 26.3495 88.2573 26.3145 88.0677 26.0851C87.963 25.9604 87.9879 25.731 88.0977 25.6163C88.352 25.3569 88.7112 25.3719 89.0503 25.4517C89.4144 25.5414 89.6688 25.7011 89.8983 26.0003C90.1177 26.2896 89.8185 26.6836 89.4843 26.6238L89.4793 26.6288Z" fill="#263238"/>
<path d="M83.9781 33.1078C84.1127 33.2425 84.2424 33.4271 84.4469 33.447C84.6414 33.467 84.8709 33.3822 85.0554 33.3173C85.0754 33.3123 85.0903 33.3323 85.0804 33.3473C84.9307 33.5617 84.6215 33.6914 84.3621 33.6415C84.1077 33.5917 83.988 33.3722 83.9282 33.1378C83.9182 33.1029 83.9631 33.0929 83.9831 33.1128L83.9781 33.1078Z" fill="#263238"/>
<path d="M87.2445 30.7038C87.2445 30.7038 87.2695 31.5468 87.2246 31.9358C87.2246 31.9707 86.1173 31.7562 84.9302 32.0156C84.7507 32.0555 84.7706 31.9109 84.9751 31.8161C85.3891 31.6266 85.9078 31.447 86.9253 31.5567C86.9652 31.452 86.8655 30.2599 86.9253 30.2649C87.1398 30.2699 87.5488 30.4594 87.7932 30.5642C87.7932 28.8085 87.5139 27.0677 87.5388 25.322C87.5388 25.2621 87.6336 25.2522 87.6436 25.307C88.0675 27.1126 88.1074 29.1327 88.1573 30.9432C88.1673 31.1677 87.3942 30.7886 87.2445 30.7038Z" fill="#263238"/>
<path d="M86.1226 31.6365C86.1226 31.6365 85.7286 32.6241 85.0752 32.8884C84.3221 33.1927 84.0627 32.5094 84.8308 31.9058C85.2348 31.5916 86.1226 31.6365 86.1226 31.6365Z" fill="#263238"/>
<path d="M85.3395 32.7336C85.2547 32.7985 85.1699 32.8533 85.0751 32.8883C84.3818 33.1676 84.1075 32.6139 84.6661 32.0553C85.0452 32.0852 85.4592 32.2249 85.3395 32.7336Z" fill="#FF99BA"/>
<path d="M77.8386 28.2297C78.7514 28.509 79.7988 25.7657 80.0981 24.7133C80.3575 23.7856 80.6617 20.8378 80.7066 20.6333C80.7515 20.4338 84.6819 23.2419 86.9812 22.5686C89.2806 21.8952 90.8168 19.8353 90.8468 18.8726C90.8767 17.91 88.0237 15.466 85.5547 15.3413C83.0858 15.2166 79.744 18.3539 79.744 18.3539C79.744 18.3539 80.8812 16.9972 80.8413 16.8875C80.8014 16.7777 79.2053 17.4162 78.911 18.5484C78.911 18.5484 79.2252 17.1219 79.1055 17.097C78.9858 17.072 77.7439 18.294 78.0232 19.2168C78.0232 19.2168 76.5867 20.4587 76.457 21.8204C76.3224 23.1821 76.7663 27.8955 77.8386 28.2247V28.2297Z" fill="#263238"/>
<path d="M88.6122 22.0894C87.914 22.4086 87.2107 22.7628 86.4426 22.8675C85.6096 22.9773 84.7417 22.7678 83.9636 22.4685C83.1706 22.1642 82.4473 21.7203 81.789 21.1817C81.2154 20.7078 80.7016 20.1392 80.0881 19.7152C79.9335 19.6105 79.7589 19.83 79.8487 19.9746C80.7814 21.3712 82.4324 22.5433 84.0185 23.0471C85.6894 23.5758 87.2655 23.2067 88.6172 22.1094C88.6272 22.1044 88.6172 22.0844 88.6073 22.0894H88.6122Z" fill="#263238"/>
<path d="M78.7912 27.9854C78.7912 27.9854 77.3747 25.1125 76.0978 25.5763C74.8209 26.0402 75.609 30.0154 76.9108 30.7387C78.2126 31.4669 78.9109 30.2748 78.9109 30.2748L78.7912 27.9854Z" fill="#EB9481"/>
<path d="M76.3522 26.7088C76.3522 26.7088 76.3222 26.7338 76.3372 26.7438C77.245 27.2874 77.6191 28.265 77.8335 29.2476C77.5991 28.8436 77.24 28.5892 76.7063 28.8586C76.6764 28.8735 76.6963 28.9184 76.7262 28.9134C77.1352 28.8885 77.4146 29.0032 77.629 29.3623C77.7837 29.6167 77.8684 29.921 77.9682 30.2003C77.9981 30.2951 78.1627 30.2701 78.1478 30.1654C78.1478 30.1554 78.1478 30.1504 78.1478 30.1404C78.3622 28.9085 77.6689 27.0331 76.3621 26.7039L76.3522 26.7088Z" fill="#263238"/>
<path d="M69.4394 40.8092C68.4618 46.4604 74.5669 65.4987 78.4923 69.055C84.3329 74.3421 95.1315 77.8185 99.0469 78.9508C100.753 79.4445 105.471 67.444 103.745 66.6509C100.049 64.96 88.5676 61.3788 87.4852 60.4561C86.4029 59.5383 79.804 50.0416 76.8712 44.57C72.9359 37.223 69.9282 37.9512 69.4345 40.8092H69.4394Z" fill="#EB9481"/>
<path d="M100.837 65.5985C100.837 65.5985 105.929 66.8953 109.221 67.9029C111.057 68.4615 114.119 69.7084 115.282 70.7359C117.017 72.2771 123.292 79.8187 121.496 81.3798C119.87 82.7914 115.301 75.6239 115.301 75.6239C115.301 75.6239 120.549 82.4472 118.279 83.7889C116.01 85.1306 111.925 76.3472 111.925 76.3472C111.925 76.3472 117.162 83.4797 114.598 84.4922C112.663 85.2553 108.513 77.5093 108.513 77.5093C108.513 77.5093 112.972 83.6692 111.017 84.5421C108.857 85.5047 104.578 78.5967 104.578 78.5967C99.2309 79.9783 96.1235 78.447 94.0386 77.0953C93.5348 76.7661 100.842 65.5935 100.842 65.5935L100.837 65.5985Z" fill="#EB9481"/>
<path d="M113.636 73.1496C114.279 73.9277 114.937 74.7158 115.516 75.5487C116.09 76.3817 116.633 77.2396 117.127 78.1224C118.339 80.2921 118.758 81.8383 118.723 81.7436C117.865 79.5489 115.855 76.5313 115.282 75.6984C114.708 74.8654 114.179 74.0025 113.606 73.1696C113.591 73.1496 113.621 73.1297 113.641 73.1496H113.636Z" fill="#263238"/>
<path d="M110.588 75.1646C111.695 76.0425 114.015 79.3095 114.913 81.4941C114.952 81.5839 114.903 81.5789 114.848 81.4941C114.144 80.4118 111.316 76.2221 110.563 75.1796C110.553 75.1646 110.573 75.1497 110.588 75.1646Z" fill="#263238"/>
<path d="M107.66 76.4265C108.942 77.6934 110.015 79.4241 110.862 81.4242C110.902 81.514 110.828 81.499 110.778 81.4143C109.745 79.7334 108.947 78.4066 107.61 76.4664C107.59 76.4365 107.635 76.3916 107.665 76.4215L107.66 76.4265Z" fill="#263238"/>
<path d="M74.9912 41.2285C70.4373 34.7892 67.714 37.1734 68.6268 44.1663C69.4797 50.7052 71.7741 58.4961 71.7741 58.4961L83.2659 52.9298C83.2659 52.9298 77.904 45.3533 74.9912 41.2285Z" fill="#FF9A27"/>
<path d="M77.7746 43.7571C77.9392 44.1262 78.024 44.5102 78.0988 44.8943C78.1637 45.2784 78.2086 45.6724 78.1786 46.0714C78.014 45.7023 77.9242 45.3232 77.8544 44.9342C77.7946 44.5501 77.7497 44.1561 77.7746 43.7571Z" fill="white"/>
<path d="M70.9766 47.6775C71.3457 47.5129 71.7247 47.4281 72.1138 47.3533C72.4978 47.2885 72.8919 47.2436 73.2909 47.2735C72.9218 47.4381 72.5427 47.5279 72.1537 47.5977C71.7696 47.6576 71.3756 47.7025 70.9766 47.6775Z" fill="white"/>
<path d="M71.2706 37.657C71.126 38.0311 70.9165 38.3652 70.697 38.6895C70.4676 39.0087 70.2232 39.3129 69.9189 39.5773C70.0636 39.2032 70.2731 38.869 70.4925 38.5448C70.722 38.2256 70.9664 37.9213 71.2706 37.657Z" fill="white"/>
<path d="M80.9669 50.6852C80.8223 51.0593 80.6128 51.3934 80.3933 51.7177C80.1639 52.0369 79.9195 52.3411 79.6152 52.6055C79.7599 52.2314 79.9694 51.8972 80.1888 51.573C80.4183 51.2538 80.6627 50.9495 80.9669 50.6852Z" fill="white"/>
<path d="M73.016 54.5907C72.6419 54.4461 72.3077 54.2366 71.9835 54.0171C71.6643 53.7877 71.3601 53.5433 71.0957 53.239C71.4698 53.3837 71.804 53.5931 72.1282 53.8126C72.4474 54.042 72.7516 54.2864 73.016 54.5907Z" fill="white"/>
<path d="M76.5173 43.1636C77.1308 44.0065 77.7642 44.8295 78.3927 45.6575C78.2331 45.2385 78.0934 44.8195 77.9687 44.3856C77.9637 44.3656 77.9937 44.3557 77.9987 44.3756C78.1283 44.7048 78.268 45.034 78.3927 45.3632C78.4525 45.5228 78.5124 45.6824 78.5723 45.842C78.5872 45.8769 78.5972 45.9118 78.6122 45.9468C79.1059 46.5902 79.5947 47.2386 80.0636 47.897C80.6272 48.6801 81.1709 49.4831 81.7195 50.2811C82.2832 51.1041 82.8218 52.0717 83.4154 52.8748C83.4653 52.9446 82.3979 53.3736 82.2981 53.4334C82.1984 53.4883 82.1285 53.3935 82.2333 53.3586C82.333 53.3287 83.181 52.8099 83.1909 52.8C82.6423 51.9969 82.0088 51.2538 81.4352 50.4657C80.8666 49.6826 80.293 48.9045 79.7394 48.1065C78.6171 46.4904 77.5847 44.8145 76.4724 43.1935C76.4574 43.1735 76.4923 43.1536 76.5073 43.1735L76.5173 43.1636Z" fill="#263238"/>
<path d="M68.9115 48.7898C69.0861 49.129 69.2756 49.4681 69.4302 49.8173C69.4951 49.9619 69.5549 50.1066 69.6198 50.2512C69.3554 49.0043 69.1011 47.7623 68.8467 46.5154C68.8467 46.5004 68.8666 46.4954 68.8716 46.5104C69.4003 48.5304 69.929 50.5455 70.4178 52.5755C70.8867 54.5108 71.4453 56.466 71.7147 58.4411C71.8743 58.3863 72.7671 58.0172 72.792 58.077C72.817 58.1369 71.6249 58.7005 71.6049 58.6506C70.9565 56.7253 70.5525 54.5307 70.1086 52.5506C69.9839 51.9919 69.8692 51.4333 69.7495 50.8697C69.6198 50.5305 69.4652 50.2063 69.3105 49.8821C69.146 49.533 69.0163 49.1739 68.8766 48.8147C68.8666 48.7948 68.9015 48.7798 68.9115 48.7998V48.7898Z" fill="#263238"/>
<path d="M71.9589 56.5706C73.555 55.6678 80.2237 52.2163 81.72 51.5678C81.8247 51.523 81.8796 51.5778 81.7749 51.6377C77.0564 54.4508 73.6099 55.8274 71.9988 56.6354C71.9589 56.6554 71.919 56.6005 71.9589 56.5756V56.5706Z" fill="#263238"/>
<path d="M254.726 187.7H102.759L124.73 63.0798H276.698L254.726 187.7Z" fill="#FFA927"/>
<path d="M176.742 50.1715H127.009L124.729 63.0799H177.954L176.742 50.1715Z" fill="#FFA927"/>
<g opacity="0.1">
<path d="M254.726 187.7H102.759L124.73 63.0798H276.698L254.726 187.7Z" fill="black"/>
<path d="M176.742 50.1715H127.009L124.729 63.0799H177.954L176.742 50.1715Z" fill="black"/>
</g>
<path d="M121.643 55.4386C121.448 54.7154 121.404 53.9922 121.394 53.2689C121.399 52.5457 121.443 51.8225 121.643 51.0992C121.842 51.8225 121.887 52.5457 121.892 53.2689C121.882 53.9922 121.837 54.7154 121.643 55.4386Z" fill="#263238"/>
<path d="M117.223 56.7155C116.69 56.1868 116.291 55.5833 115.922 54.9598C115.567 54.3313 115.243 53.6829 115.054 52.9547C115.587 53.4834 115.986 54.0869 116.356 54.7104C116.71 55.3389 117.034 55.9873 117.223 56.7155Z" fill="#263238"/>
<path d="M114.031 60.0324C113.308 59.8428 112.66 59.5186 112.026 59.1645C111.403 58.7954 110.799 58.3964 110.271 57.8627C110.994 58.0522 111.642 58.3764 112.276 58.7305C112.899 59.0996 113.503 59.4987 114.031 60.0324Z" fill="#263238"/>
<path d="M112.929 64.4963C112.206 64.6909 111.483 64.7358 110.76 64.7457C110.036 64.7407 109.313 64.6958 108.59 64.4963C109.313 64.2968 110.036 64.2519 110.76 64.2469C111.483 64.2569 112.206 64.3018 112.929 64.4963Z" fill="#263238"/>
<path d="M114.206 68.9156C113.677 69.4493 113.074 69.8484 112.45 70.2175C111.822 70.5716 111.174 70.8958 110.445 71.0853C110.974 70.5516 111.578 70.1526 112.201 69.7835C112.829 69.4294 113.478 69.1052 114.206 68.9156Z" fill="#263238"/>
<path d="M117.523 72.1078C117.334 72.831 117.009 73.4794 116.655 74.1129C116.286 74.7363 115.887 75.3399 115.354 75.8686C115.543 75.1453 115.867 74.4969 116.221 73.8635C116.59 73.24 116.99 72.6365 117.523 72.1078Z" fill="#263238"/>
<path d="M121.993 73.2101C122.187 73.9333 122.232 74.6565 122.242 75.3798C122.237 76.103 122.192 76.8262 121.993 77.5494C121.793 76.8262 121.748 76.103 121.743 75.3798C121.753 74.6565 121.798 73.9333 121.993 73.2101Z" fill="#263238"/>
<path d="M126.411 71.9331C126.945 72.4618 127.344 73.0653 127.713 73.6888C128.067 74.3173 128.391 74.9657 128.581 75.6939C128.047 75.1652 127.648 74.5617 127.279 73.9382C126.925 73.3097 126.601 72.6613 126.411 71.9331Z" fill="#263238"/>
<path d="M129.599 68.6163C130.322 68.8059 130.97 69.1301 131.604 69.4842C132.227 69.8533 132.831 70.2523 133.359 70.786C132.636 70.5965 131.988 70.2723 131.354 69.9181C130.731 69.549 130.127 69.15 129.599 68.6163Z" fill="#263238"/>
<path d="M130.701 64.1473C131.424 63.9528 132.148 63.9079 132.871 63.8979C133.594 63.9029 134.317 63.9478 135.041 64.1473C134.317 64.3468 133.594 64.3917 132.871 64.3967C132.148 64.3868 131.424 64.3419 130.701 64.1473Z" fill="#263238"/>
<path d="M129.424 59.7282C129.953 59.1945 130.556 58.7954 131.18 58.4263C131.808 58.0722 132.456 57.748 133.185 57.5585C132.656 58.0922 132.052 58.4912 131.429 58.8603C130.8 59.2144 130.152 59.5386 129.424 59.7282Z" fill="#263238"/>
<path d="M126.107 56.5409C126.297 55.8177 126.621 55.1693 126.975 54.5358C127.344 53.9124 127.743 53.3089 128.277 52.7802C128.088 53.5034 127.763 54.1518 127.409 54.7852C127.04 55.4087 126.641 56.0122 126.107 56.5409Z" fill="#263238"/>
<path d="M254.502 187.7H102.205L80.583 67.604H232.88L254.502 187.7Z" fill="#FF9E27"/>
<path d="M133.359 141.019C136.854 141.019 139.688 138.185 139.688 134.689C139.688 131.194 136.854 128.36 133.359 128.36C129.863 128.36 127.029 131.194 127.029 134.689C127.029 138.185 129.863 141.019 133.359 141.019Z" fill="#263238"/>
<path d="M183.396 141.019C186.892 141.019 189.725 138.185 189.725 134.69C189.725 131.194 186.892 128.36 183.396 128.36C179.9 128.36 177.066 131.194 177.066 134.69C177.066 138.185 179.9 141.019 183.396 141.019Z" fill="#263238"/>
<path d="M167.47 142.027L167.121 141.363C167.091 141.303 163.819 135.258 157.24 135.258C151.24 135.258 149.779 140.949 149.719 141.194L149.539 141.917L148.088 141.568L148.262 140.84C148.277 140.77 150.043 133.762 157.24 133.762C164.438 133.762 168.298 140.386 168.448 140.67L168.797 141.333L167.47 142.027Z" fill="#263238"/>
<path d="M244.396 133.961C244.721 133.891 245.045 133.817 245.369 133.732" stroke="#263238" stroke-width="0.498778" stroke-miterlimit="10"/>
<path d="M247.279 133.168C254.91 130.589 261.3 124.589 261.898 117.576C263.225 102.114 244.391 93.5752 246.336 75.704C248.192 58.6607 266.068 57.4437 273.236 59.7979C281.151 62.4016 278.438 70.0079 271.27 69.0253C258.846 67.3245 251.035 53.8176 256.935 38.4951C261.345 27.0482 272.333 22.7288 276.797 21.412" stroke="#263238" stroke-width="0.498778" stroke-miterlimit="10" stroke-dasharray="2 2"/>
<path d="M277.77 21.1526C278.388 20.9929 278.737 20.9281 278.737 20.9281" stroke="#263238" stroke-width="0.498778" stroke-miterlimit="10"/>
<path d="M286.648 18.1699C285.376 14.2296 276.857 15.6461 278.518 20.7935C280.179 25.9459 287.92 22.1103 286.648 18.1699Z" fill="#263238"/>
<path d="M273.884 16.5789C273.949 14.8481 276.353 13.5214 279.754 14.1349C283.156 14.7484 286.358 17.0378 286.358 17.0378C286.358 17.0378 282.996 19.0927 279.56 19.4568C276.123 19.8209 273.824 18.3146 273.889 16.5789H273.884Z" fill="#EBEBEB"/>
<path d="M286.353 17.0379C284.588 17.0478 282.827 16.993 281.061 16.9381C279.301 16.8633 277.535 16.7935 275.779 16.6488C277.545 16.6339 279.306 16.6937 281.071 16.7486C282.832 16.8234 284.598 16.8932 286.353 17.0379Z" fill="#263238"/>
<path d="M277.301 15.0476C277.81 15.277 278.283 15.5663 278.757 15.8506C279.221 16.1549 279.69 16.4542 280.119 16.8133C279.61 16.5838 279.136 16.2946 278.662 16.0102C278.199 15.706 277.73 15.4067 277.301 15.0476Z" fill="#263238"/>
<path d="M281.924 16.8781C281.475 17.2571 280.991 17.5763 280.508 17.9005C280.014 18.2048 279.52 18.514 278.991 18.7634C279.44 18.3844 279.924 18.0651 280.408 17.7409C280.902 17.4367 281.395 17.1274 281.924 16.8781Z" fill="#263238"/>
<path d="M282.438 15.9005C282.703 16.0152 282.922 16.1848 283.142 16.3494C283.351 16.529 283.561 16.7085 283.73 16.943C283.466 16.8282 283.246 16.6587 283.027 16.4941C282.818 16.3145 282.608 16.1349 282.438 15.9005Z" fill="#263238"/>
<path d="M277.126 26.8434C278.188 28.21 280.916 27.8808 283.315 25.3969C285.715 22.913 286.971 19.1821 286.971 19.1821C286.971 19.1821 283.041 19.4814 280.043 21.1972C277.046 22.913 276.058 25.4767 277.126 26.8483V26.8434Z" fill="#EBEBEB"/>
<path d="M286.972 19.1772C285.53 20.1997 284.139 21.2771 282.737 22.3545C281.35 23.4468 279.964 24.5341 278.617 25.6763C280.059 24.6538 281.45 23.5765 282.852 22.4991C284.238 21.4068 285.625 20.3194 286.972 19.1772Z" fill="#263238"/>
<path d="M280.792 26.0851C281.071 25.6013 281.286 25.0876 281.505 24.5788C281.705 24.0601 281.909 23.5464 282.044 23.0027C281.765 23.4865 281.55 24.0002 281.331 24.509C281.131 25.0277 280.927 25.5415 280.792 26.0851Z" fill="#263238"/>
<path d="M283.47 21.9005C282.886 21.8556 282.303 21.8806 281.724 21.9005C281.145 21.9404 280.562 21.9753 279.988 22.0851C280.572 22.13 281.155 22.105 281.734 22.0851C282.313 22.0452 282.896 22.0053 283.47 21.9005Z" fill="#263238"/>
<path d="M284.458 22.3894C284.608 22.145 284.682 21.8807 284.767 21.6163C284.832 21.347 284.897 21.0776 284.897 20.7933C284.747 21.0377 284.672 21.3021 284.588 21.5664C284.523 21.8358 284.458 22.1051 284.458 22.3894Z" fill="#263238"/>
<path d="M286.648 18.17C285.864 18.4244 285.022 17.9904 284.767 17.2074C284.513 16.4243 284.947 15.5813 285.73 15.327C286.513 15.0726 287.356 15.5065 287.61 16.2896C287.865 17.0727 287.431 17.9156 286.648 18.17Z" fill="#455A64"/>
<path d="M287.565 21.0129C286.782 21.2673 285.939 20.8333 285.685 20.0502C285.431 19.2672 285.865 18.4242 286.648 18.1699C287.431 17.9155 288.274 18.3494 288.528 19.1325C288.782 19.9156 288.349 20.7585 287.565 21.0129Z" fill="#455A64"/>
<path d="M124.042 19.7463C123.328 26.5746 117.208 31.5324 110.385 30.8192C107.627 30.5299 105.173 29.3577 103.272 27.612L97.0527 28.5248L100.165 23.1479C99.412 21.3124 99.0927 19.2675 99.3122 17.1626C100.025 10.3343 106.145 5.37649 112.969 6.08974C119.797 6.80299 124.755 12.923 124.042 19.7463Z" fill="white"/>
<path d="M124.042 19.7464C123.782 22.0158 122.954 24.2404 121.533 26.046C121.209 26.5198 120.785 26.9138 120.406 27.3428C119.972 27.7169 119.573 28.1309 119.094 28.4551C118.186 29.1533 117.163 29.702 116.096 30.126C115.034 30.5749 113.892 30.7893 112.749 30.924C112.176 30.9539 111.597 31.0088 111.024 30.9589C110.445 30.944 109.871 30.8841 109.303 30.7794C107.028 30.3654 104.874 29.303 103.153 27.7418L103.297 27.7867L97.0827 28.7394L96.6338 28.8092L96.8632 28.4102L99.9556 23.0234L99.9407 23.2378C98.4344 19.6915 98.7735 15.4619 100.709 12.16C101.671 10.504 103.018 9.07753 104.604 8.01514C106.19 6.94775 108.026 6.27939 109.911 6.02501C111.797 5.77562 113.732 5.94521 115.532 6.54374C117.328 7.14726 118.979 8.16477 120.326 9.48154C123.069 12.0902 124.451 16.0056 124.047 19.7464H124.042ZM124.042 19.7464C124.421 16.0006 123.014 12.1101 120.266 9.53641C118.904 8.24956 117.253 7.27196 115.473 6.70834C113.687 6.14971 111.782 6.01504 109.941 6.29435C108.106 6.57367 106.325 7.26198 104.809 8.32438C103.292 9.39176 102.016 10.7834 101.088 12.3794C100.145 13.9755 99.6564 15.806 99.5117 17.6416C99.397 19.482 99.6963 21.3475 100.385 23.0583L100.429 23.168L100.37 23.2678L97.2373 28.6346L97.0129 28.3054L103.238 27.4326L103.322 27.4226L103.382 27.4824C105.028 29.0287 107.108 30.106 109.333 30.5499C109.886 30.6597 110.45 30.7345 111.019 30.7544C111.587 30.8143 112.151 30.7744 112.719 30.7544C113.847 30.6397 114.979 30.4502 116.041 30.0212C117.104 29.6222 118.136 29.0985 119.039 28.4052C119.518 28.091 119.917 27.682 120.351 27.3079C120.735 26.8839 121.154 26.4949 121.483 26.026C122.909 24.2354 123.752 22.0208 124.027 19.7514L124.042 19.7464Z" fill="#263238"/>
<path d="M105.602 24.2454C105.602 23.5022 106.115 22.9685 106.819 22.9685C107.562 22.9685 108.036 23.5022 108.036 24.2454C108.036 24.9886 107.562 25.5223 106.819 25.5223C106.075 25.5223 105.602 24.9636 105.602 24.2454ZM106.115 21.2976L105.826 11.4019H107.806L107.517 21.2976H106.115Z" fill="#FF9A27"/>
<path d="M110.34 24.2455C110.34 23.5023 110.854 22.9686 111.557 22.9686C112.3 22.9686 112.774 23.5023 112.774 24.2455C112.774 24.9887 112.3 25.5224 111.557 25.5224C110.814 25.5224 110.34 24.9638 110.34 24.2455ZM110.859 21.2977L110.569 11.402H112.549L112.26 21.2977H110.859Z" fill="#FF9A27"/>
<path d="M115.083 24.2455C115.083 23.5023 115.597 22.9686 116.3 22.9686C117.043 22.9686 117.517 23.5023 117.517 24.2455C117.517 24.9887 117.043 25.5224 116.3 25.5224C115.557 25.5224 115.083 24.9638 115.083 24.2455ZM115.602 21.2977L115.312 11.402H117.293L117.003 21.2977H115.602Z" fill="#FF9A27"/>
</g>
<defs>
<clipPath id="clip0_15_5582">
<rect width="305.222" height="200" fill="white"/>
</clipPath>
</defs>
</svg>
