<svg width="24" height="24" viewBox="0 0 24 24" fill="none" xmlns="http://www.w3.org/2000/svg">
<g clip-path="url(#clip0_15_5269)">
<path d="M12 23.25C5.787 23.25 0.75 18.213 0.75 12C0.75 5.787 5.787 0.75 12 0.75C18.213 0.75 23.25 5.787 23.25 12C23.25 18.213 18.213 23.25 12 23.25ZM11.25 6V14.25C11.25 14.4489 11.329 14.6397 11.4697 14.7803C11.6103 14.921 11.8011 15 12 15C12.1989 15 12.3897 14.921 12.5303 14.7803C12.671 14.6397 12.75 14.4489 12.75 14.25V6C12.75 5.80109 12.671 5.61032 12.5303 5.46967C12.3897 5.32902 12.1989 5.25 12 5.25C11.8011 5.25 11.6103 5.32902 11.4697 5.46967C11.329 5.61032 11.25 5.80109 11.25 6ZM10.875 18.375C10.875 18.6734 10.9935 18.9595 11.2045 19.1705C11.4155 19.3815 11.7016 19.5 12 19.5C12.2984 19.5 12.5845 19.3815 12.7955 19.1705C13.0065 18.9595 13.125 18.6734 13.125 18.375C13.125 18.0766 13.0065 17.7905 12.7955 17.5795C12.5845 17.3685 12.2984 17.25 12 17.25C11.7016 17.25 11.4155 17.3685 11.2045 17.5795C10.9935 17.7905 10.875 18.0766 10.875 18.375Z" fill="#FF8E1C"/>
</g>
<defs>
<clipPath id="clip0_15_5269">
<rect width="24" height="24" fill="white"/>
</clipPath>
</defs>
</svg>
