<svg width="12" height="13" viewBox="0 0 12 13" fill="none" xmlns="http://www.w3.org/2000/svg">
<path d="M5.8623 1.02052C5.9538 0.993832 6.05109 0.993792 6.14258 1.02052L10.6406 2.33399C10.8535 2.39637 10.9998 2.59166 11 2.81349V5.5088C10.9998 8.55588 9.04995 11.2612 6.15918 12.2246C6.05665 12.2588 5.94532 12.2587 5.84277 12.2246C2.95093 11.2613 1 8.55492 1 5.50684V2.81349C1.00019 2.59147 1.1472 2.3962 1.36035 2.33399L5.8623 1.02052ZM8.85352 4.64649C8.65825 4.45123 8.34175 4.45123 8.14648 4.64649L5.5 7.29298L4.10352 5.89649C3.90825 5.70123 3.59175 5.70123 3.39648 5.89649C3.20122 6.09176 3.20122 6.40826 3.39648 6.60352L5.14648 8.35352C5.34175 8.54879 5.65825 8.54879 5.85352 8.35352L8.85352 5.35352C9.04878 5.15826 9.04878 4.84176 8.85352 4.64649Z" fill="#FF5C07"/>
</svg>
