<svg width="20" height="20" viewBox="0 0 20 20" fill="none" xmlns="http://www.w3.org/2000/svg">
<path d="M16.25 2.5H3.75C3.05964 2.5 2.5 3.05964 2.5 3.75V16.25C2.5 16.9404 3.05964 17.5 3.75 17.5H16.25C16.9404 17.5 17.5 16.9404 17.5 16.25V3.75C17.5 3.05964 16.9404 2.5 16.25 2.5Z" stroke="#6B7280" stroke-width="1.66667"/>
<path d="M14.5831 5H12.6724C12.3012 5 12.1153 5.44879 12.3778 5.71129L14.2885 7.62204C14.551 7.88454 14.9998 7.69863 14.9998 7.32742V5.41667C14.9998 5.18654 14.8133 5 14.5831 5Z" fill="#6B7280"/>
<path d="M5 5.41667V7.32742C5 7.69863 5.44879 7.88454 5.71129 7.62204L7.62204 5.71129C7.88454 5.44879 7.69863 5 7.32742 5H5.41667C5.18654 5 5 5.18654 5 5.41667Z" fill="#6B7280"/>
<path d="M5.41667 14.9998H7.32742C7.69863 14.9998 7.88454 14.551 7.62204 14.2885L5.71129 12.3778C5.44879 12.1153 5 12.3012 5 12.6724V14.5831C5 14.8133 5.18654 14.9998 5.41667 14.9998Z" fill="#6B7280"/>
<path d="M14.9998 14.5831V12.6724C14.9998 12.3012 14.551 12.1153 14.2885 12.3778L12.3778 14.2885C12.1153 14.551 12.3012 14.9998 12.6724 14.9998H14.5831C14.8133 14.9998 14.9998 14.8133 14.9998 14.5831Z" fill="#6B7280"/>
</svg>
