<svg width="16" height="16" viewBox="0 0 16 16" fill="none" xmlns="http://www.w3.org/2000/svg">
<path d="M10.5578 11.6918C9.6954 12.3077 8.6388 12.5896 7.5842 12.4854C7.53495 12.4807 7.48663 12.4724 7.43645 12.4658C7.34167 12.4528 7.24689 12.4408 7.15489 12.4222C7.09817 12.4107 7.04178 12.3977 6.98577 12.3831C6.89543 12.3632 6.80585 12.3399 6.71721 12.3135C6.6754 12.3004 6.63358 12.2856 6.59084 12.2707C6.46641 12.2292 6.34393 12.1821 6.22378 12.1295C6.10831 12.0791 5.99514 12.0236 5.88461 11.9631L5.86974 11.9557C5.37437 11.6797 4.93527 11.3131 4.57529 10.875C4.55764 10.8536 4.54091 10.8294 4.52325 10.8071C3.89001 10.0078 3.54581 9.01778 3.54661 7.99801H4.57994C4.59354 7.99803 4.60688 7.99431 4.61852 7.98726C4.63015 7.98022 4.63963 7.97012 4.64592 7.95806C4.65244 7.94627 4.65555 7.93289 4.65489 7.91943C4.65424 7.90597 4.64984 7.89296 4.6422 7.88186L2.90729 5.24465C2.90058 5.23409 2.89131 5.2254 2.88034 5.21938C2.86938 5.21336 2.85707 5.21021 2.84456 5.21021C2.83206 5.21021 2.81975 5.21336 2.80879 5.21938C2.79782 5.2254 2.78855 5.23409 2.78184 5.24465L1.046 7.88186C1.03113 7.90323 1.02835 7.93297 1.04228 7.95806C1.05622 7.98315 1.08131 7.99801 1.10826 7.99801H2.14159C2.14159 9.24693 2.5263 10.4038 3.17863 11.36C3.18699 11.374 3.19257 11.3879 3.20093 11.4009C3.26877 11.4985 3.34404 11.5896 3.41652 11.6825C3.44347 11.7169 3.46949 11.7531 3.49736 11.7875C3.60423 11.9194 3.71759 12.0412 3.83468 12.1629L3.8672 12.1964C4.37836 12.7155 4.98308 13.1333 5.64951 13.4276L5.7573 13.4759C5.88089 13.528 6.00913 13.5735 6.13643 13.6172C6.19683 13.6376 6.25631 13.659 6.31764 13.6776C6.43008 13.711 6.54437 13.7389 6.6596 13.7668C6.73673 13.7854 6.812 13.8049 6.89098 13.8198C6.92258 13.8272 6.95324 13.8365 6.98577 13.8411C7.09449 13.8607 7.20321 13.8718 7.31286 13.8848L7.42995 13.9015C8.82542 14.0438 10.2249 13.6724 11.3663 12.8571C11.5192 12.7476 11.6229 12.5824 11.6553 12.3971C11.6876 12.2119 11.6459 12.0213 11.5391 11.8665C11.4867 11.7898 11.4196 11.7244 11.3417 11.674C11.2637 11.6236 11.1765 11.5893 11.0851 11.573C10.9938 11.5568 10.9001 11.5589 10.8095 11.5793C10.719 11.5997 10.6334 11.6379 10.5578 11.6918ZM13.865 7.99801C13.866 6.80145 13.5062 5.6324 12.8326 4.64342C12.8224 4.6267 12.8159 4.60997 12.8066 4.59603C12.7249 4.48166 12.6394 4.37008 12.5501 4.2615L12.5195 4.22154C11.9341 3.49962 11.1839 2.92884 10.332 2.55726C10.3086 2.5468 10.2854 2.53595 10.2623 2.52473C10.1267 2.46951 9.98937 2.41837 9.85065 2.37141C9.79768 2.35468 9.74843 2.33609 9.69639 2.32123C9.57488 2.28477 9.45215 2.25253 9.32841 2.22458C9.26057 2.20879 9.19181 2.19113 9.12211 2.17719C9.08773 2.17069 9.05614 2.16047 9.02175 2.15396C8.92883 2.13723 8.8359 2.13073 8.74298 2.11865C8.67979 2.11029 8.61567 2.10006 8.55155 2.09356C8.39704 2.07982 8.24204 2.07207 8.08693 2.07033C8.05905 2.07033 8.03117 2.06568 8.00237 2.06568C6.7974 2.06364 5.62205 2.43896 4.64127 3.13897C4.48795 3.24834 4.3838 3.41362 4.35129 3.59913C4.31878 3.78463 4.36052 3.97548 4.4675 4.13048C4.52001 4.20695 4.58721 4.2722 4.6652 4.32242C4.74318 4.37265 4.83038 4.40685 4.92172 4.42302C5.01306 4.4392 5.10671 4.43703 5.1972 4.41663C5.28769 4.39624 5.37322 4.35803 5.44879 4.30425C6.31306 3.6886 7.37101 3.4067 8.42703 3.51067L8.54505 3.52739C8.65191 3.53947 8.75692 3.55527 8.86006 3.57571C8.9056 3.58408 8.95113 3.59616 8.99573 3.60638C9.09702 3.62961 9.19924 3.6547 9.29774 3.68444L9.39067 3.71696C9.50403 3.75413 9.61461 3.79409 9.72427 3.84055L9.75865 3.85635C10.4138 4.14163 10.989 4.58116 11.4378 5.13128L11.4462 5.14243C12.1024 5.94963 12.4599 6.95864 12.4581 7.99894H11.4257C11.4121 7.9988 11.3988 8.00238 11.3871 8.00929C11.3754 8.0162 11.3658 8.02619 11.3594 8.03816C11.353 8.05013 11.35 8.06363 11.3507 8.0772C11.3514 8.09076 11.3558 8.10387 11.3635 8.1151L13.1002 10.7514C13.107 10.7617 13.1162 10.7702 13.1271 10.7761C13.138 10.782 13.1501 10.7851 13.1625 10.7851C13.1749 10.7851 13.187 10.782 13.1979 10.7761C13.2088 10.7702 13.218 10.7617 13.2248 10.7514L14.9597 8.1151C14.9724 8.11496 14.985 8.11153 14.996 8.10514C15.0071 8.09875 15.0163 8.08961 15.0229 8.0786C15.0294 8.0676 15.0329 8.05511 15.0332 8.04233C15.0335 8.02954 15.0304 8.01691 15.0244 8.00565C15.0183 7.99438 15.0095 7.98486 14.9987 7.97801C14.9879 7.97116 14.9755 7.9672 14.9628 7.96653C14.95 7.96585 14.9373 7.96848 14.9258 7.97416C14.9144 7.97984 14.9046 7.98838 14.8974 7.99894H13.865V7.99801Z" fill="#6B7280"/>
</svg>
