<svg width="24" height="24" viewBox="0 0 24 24" fill="none" xmlns="http://www.w3.org/2000/svg">
<g clip-path="url(#clip0_15_4890)">
<path d="M10.4278 4.62434C11.2912 3.10145 12.7031 3.10146 13.5664 4.62434L20.626 17.0833C21.4882 18.6077 20.7826 19.8508 19.0576 19.8509H4.93656C3.2117 19.8508 2.50536 18.6077 3.3682 17.0833L10.4278 4.62434ZM12 15.2103C11.6961 15.2103 11.4441 15.3101 11.2442 15.5101C11.0442 15.7101 10.9444 15.9666 10.9444 16.2786C10.9445 16.5824 11.0443 16.8346 11.2442 17.0345C11.4441 17.2343 11.6962 17.3343 12 17.3343C12.3039 17.3343 12.5559 17.2343 12.7559 17.0345C12.9558 16.8346 13.0556 16.5824 13.0557 16.2786C13.0557 15.9666 12.9559 15.7101 12.7559 15.5101C12.5559 15.3102 12.304 15.2103 12 15.2103ZM11.0039 8.25031L11.0645 10.0384L11.3877 14.1419H12.6123L12.9366 10.0384L12.9961 8.25031H11.0039Z" fill="#161616"/>
</g>
<defs>
<clipPath id="clip0_15_4890">
<rect width="18" height="18" fill="white" transform="translate(3 3)"/>
</clipPath>
</defs>
</svg>
