<svg width="17" height="16" viewBox="0 0 17 16" fill="none" xmlns="http://www.w3.org/2000/svg">
<g clip-path="url(#clip0_15_4693)">
<path d="M8.5 0C12.9183 0 16.5 3.58172 16.5 8C16.5 12.4183 12.9183 16 8.5 16C4.08172 16 0.5 12.4183 0.5 8C0.5 3.58172 4.08172 0 8.5 0ZM11.8379 4.66211C11.6221 4.44626 11.2718 4.44632 11.0566 4.66211L8.5 7.21777L5.94336 4.66211C5.72826 4.44625 5.37871 4.44629 5.16211 4.66211C4.94699 4.87799 4.94649 5.2287 5.16309 5.44531L7.71777 8L5.16211 10.5557C4.94584 10.7716 4.94636 11.1214 5.16211 11.3379C5.27032 11.4468 5.4129 11.4999 5.55273 11.5C5.69264 11.5 5.83582 11.4471 5.94336 11.3389L8.5 8.7832L11.0566 11.3389C11.1648 11.4461 11.3059 11.4999 11.4463 11.5C11.5876 11.5 11.7294 11.447 11.8369 11.3389C12.0526 11.1217 12.0538 10.7726 11.8369 10.5566L9.28125 8L11.8369 5.44434C12.0535 5.22775 12.0544 4.87873 11.8379 4.66211Z" fill="#FF2478"/>
</g>
<defs>
<clipPath id="clip0_15_4693">
<rect width="16" height="16" fill="white" transform="translate(0.5)"/>
</clipPath>
</defs>
</svg>
