<svg width="20" height="20" viewBox="0 0 20 20" fill="none" xmlns="http://www.w3.org/2000/svg">
<path d="M16.25 2.5H3.75C3.05964 2.5 2.5 3.05964 2.5 3.75V16.25C2.5 16.9404 3.05964 17.5 3.75 17.5H16.25C16.9404 17.5 17.5 16.9404 17.5 16.25V3.75C17.5 3.05964 16.9404 2.5 16.25 2.5Z" stroke="#6B7280" stroke-width="1.66667"/>
<path d="M14.5831 5H12.6724C12.3012 5 12.1153 5.44879 12.3778 5.71129L14.2885 7.62204C14.551 7.88454 14.9998 7.69863 14.9998 7.32742V5.41667C14.9998 5.18654 14.8133 5 14.5831 5Z" fill="#6B7280"/>
<path d="M5 5.41667V7.32742C5 7.69863 5.44879 7.88454 5.71129 7.62204L7.62204 5.71129C7.88454 5.44879 7.69863 5 7.32742 5H5.41667C5.18654 5 5 5.18654 5 5.41667Z" fill="#6B7280"/>
<path d="M5.41667 15H7.32742C7.69863 15 7.88454 14.5513 7.62204 14.2888L5.71129 12.378C5.44879 12.1155 5 12.3014 5 12.6726V14.5834C5 14.8135 5.18654 15 5.41667 15Z" fill="#6B7280"/>
<path d="M14.9998 14.5834V12.6726C14.9998 12.3014 14.551 12.1155 14.2885 12.378L12.3778 14.2888C12.1153 14.5513 12.3012 15 12.6724 15H14.5831C14.8133 15 14.9998 14.8135 14.9998 14.5834Z" fill="#6B7280"/>
</svg>
