<svg width="20" height="20" viewBox="0 0 20 20" fill="none" xmlns="http://www.w3.org/2000/svg">
<path fill-rule="evenodd" clip-rule="evenodd" d="M2.08301 4.16659C2.08301 3.70635 2.4561 3.33325 2.91634 3.33325H17.083C17.5433 3.33325 17.9163 3.70635 17.9163 4.16659V15.8333C17.9163 16.2935 17.5433 16.6666 17.083 16.6666H2.91634C2.4561 16.6666 2.08301 16.2935 2.08301 15.8333V4.16659Z" stroke="#6B7280" stroke-width="1.66667" stroke-linecap="round" stroke-linejoin="round"/>
<path fill-rule="evenodd" clip-rule="evenodd" d="M6.04199 7.5C6.38716 7.5 6.66699 7.22017 6.66699 6.875C6.66699 6.52983 6.38716 6.25 6.04199 6.25C5.69683 6.25 5.41699 6.52983 5.41699 6.875C5.41699 7.22017 5.69683 7.5 6.04199 7.5Z" fill="#6B7280" stroke="#6B7280" stroke-width="1.66667" stroke-linecap="round" stroke-linejoin="round"/>
<path d="M6.24967 10L8.33301 11.6667L10.833 8.75L17.9163 14.1667V15.8333C17.9163 16.2936 17.5433 16.6667 17.083 16.6667H2.91634C2.4561 16.6667 2.08301 16.2936 2.08301 15.8333V14.1667L6.24967 10Z" stroke="#6B7280" stroke-width="1.66667" stroke-linejoin="round"/>
</svg>
