<svg width="20" height="20" viewBox="0 0 20 20" fill="none" xmlns="http://www.w3.org/2000/svg">
<path fill-rule="evenodd" clip-rule="evenodd" d="M2.08325 4.16665C2.08325 3.70641 2.45635 3.33331 2.91659 3.33331H17.0833C17.5435 3.33331 17.9166 3.70641 17.9166 4.16665V15.8333C17.9166 16.2936 17.5435 16.6666 17.0833 16.6666H2.91659C2.45635 16.6666 2.08325 16.2936 2.08325 15.8333V4.16665Z" stroke="#A5A5A5" stroke-width="1.66667" stroke-linecap="round" stroke-linejoin="round"/>
<path fill-rule="evenodd" clip-rule="evenodd" d="M6.04175 7.5C6.38691 7.5 6.66675 7.22017 6.66675 6.875C6.66675 6.52983 6.38691 6.25 6.04175 6.25C5.69658 6.25 5.41675 6.52983 5.41675 6.875C5.41675 7.22017 5.69658 7.5 6.04175 7.5Z" fill="#A5A5A5" stroke="#A5A5A5" stroke-width="1.66667" stroke-linecap="round" stroke-linejoin="round"/>
<path d="M6.24992 10L8.33325 11.6667L10.8333 8.75L17.9166 14.1667V15.8333C17.9166 16.2936 17.5435 16.6667 17.0833 16.6667H2.91659C2.45635 16.6667 2.08325 16.2936 2.08325 15.8333V14.1667L6.24992 10Z" stroke="#A5A5A5" stroke-width="1.66667" stroke-linejoin="round"/>
</svg>
