<svg width="56" height="56" viewBox="0 0 56 56" fill="none" xmlns="http://www.w3.org/2000/svg">
<rect x="11.0391" y="0.693359" width="46" height="46" rx="8" transform="rotate(13 11.0391 0.693359)" fill="url(#paint0_linear_4443_6791)"/>
<path d="M40.7001 17.8042C42.449 18.2079 43.5395 19.953 43.1357 21.702L38.7492 40.7022C38.3454 42.4511 36.6003 43.5416 34.8514 43.1378L15.8512 38.7512C14.1023 38.3475 13.0118 36.6024 13.4156 34.8534L17.8021 15.8532C18.2059 14.1043 19.951 13.0138 21.6999 13.4176L40.7001 17.8042ZM24.6709 20.7745C23.9715 20.6131 23.2736 21.0492 23.112 21.7486L22.6733 23.6488C22.5118 24.3483 22.948 25.0461 23.6474 25.2077C24.347 25.3692 25.0448 24.9332 25.2063 24.2336L25.3526 23.5999L27.8856 24.1847L25.8384 33.052L25.7075 33.0288C25.0538 32.9462 24.431 33.3703 24.2795 34.0261C24.118 34.7256 24.5541 35.4235 25.2536 35.585L27.7866 36.1698C28.4862 36.3313 29.1849 35.8955 29.3464 35.1959C29.5079 34.4965 29.0716 33.7987 28.3724 33.637L30.4195 24.7697L32.9535 25.3547L32.8072 25.9884C32.6457 26.688 33.0817 27.3858 33.7813 27.5473C34.4808 27.7087 35.1787 27.2727 35.3401 26.5732L35.7788 24.673C35.9402 23.9735 35.5041 23.2757 34.8047 23.1141L24.6709 20.7745Z" fill="black"/>
<defs>
<linearGradient id="paint0_linear_4443_6791" x1="11.0391" y1="23.6934" x2="57.0391" y2="23.6934" gradientUnits="userSpaceOnUse">
<stop stop-color="#C2FF59"/>
<stop offset="1" stop-color="#98FF59"/>
</linearGradient>
</defs>
</svg>
