<svg width="33" height="30" viewBox="0 0 33 30" fill="none" xmlns="http://www.w3.org/2000/svg">
<path d="M31.8922 25.1543C32.9344 26.9594 31.6319 29.2158 29.5475 29.2158H2.97134C0.886913 29.2158 -0.415601 26.9594 0.626612 25.1543L3.90981 19.4668C6.60047 23.0554 11.1483 25.9208 16.2594 25.9209C21.3703 25.9208 25.9174 23.0552 28.6081 19.4668L31.8922 25.1543ZM13.9147 2.13863C14.9569 0.333468 17.5619 0.333468 18.6042 2.13863L23.0719 9.87789C21.0246 8.79943 18.7068 8.14158 16.2594 8.14156C13.8118 8.14158 11.4935 8.79923 9.44595 9.87789L13.9147 2.13863Z" fill="white"/>
<path opacity="0.7" d="M16.2803 10.4463C20.9953 10.4463 25.0848 13.1524 27.1113 17.1113C25.0848 21.0702 20.9954 23.7763 16.2803 23.7763C11.5651 23.7763 7.47575 21.0702 5.44922 17.1113C7.47578 13.1524 11.5652 10.4463 16.2803 10.4463ZM16.2803 12.6533C13.8438 12.6533 11.8683 14.6492 11.8682 17.1113C11.8682 19.5734 13.8437 21.5693 16.2803 21.5693C18.7168 21.5693 20.6924 19.5734 20.6924 17.1113C20.6923 14.6492 18.7167 12.6533 16.2803 12.6533ZM16.2803 15.3066C17.2772 15.3066 18.0849 16.1144 18.085 17.1113C18.085 18.1083 17.2772 18.9169 16.2803 18.917C15.2833 18.917 14.4746 18.1083 14.4746 17.1113C14.4747 16.1144 15.2834 15.3066 16.2803 15.3066Z" fill="white"/>
</svg>
