<svg width="29" height="28" viewBox="0 0 29 28" fill="none" xmlns="http://www.w3.org/2000/svg">
<path fill-rule="evenodd" clip-rule="evenodd" d="M16.3717 4.16304C15.6689 2.94565 13.9117 2.94565 13.2089 4.16304L9.94615 9.81421C11.3867 9.1249 13.0396 8.73503 14.7903 8.73503C16.541 8.73503 18.1939 9.12489 19.6344 9.81418L16.3717 4.16304ZM23.1141 15.8412C21.2989 18.1697 18.2338 19.678 14.7903 19.678C11.3468 19.678 8.2817 18.1697 6.46649 15.8412L4.24737 19.6848C3.54451 20.9022 4.42309 22.4239 5.82881 22.4239H23.7518C25.1575 22.4239 26.0361 20.9022 25.3332 19.6848L23.1141 15.8412ZM22.0947 14.2065L22.0946 14.2066L22.0942 14.2058L22.0947 14.2065ZM7.48597 14.2065L7.48597 14.2065L7.48605 14.2064L7.48597 14.2065Z" fill="white"/>
<path fill-rule="evenodd" clip-rule="evenodd" d="M7.5 14.2611C8.86668 11.5912 11.6245 9.76611 14.8043 9.76611C17.9842 9.76611 20.742 11.5912 22.1087 14.2611C20.742 16.931 17.9842 18.7561 14.8043 18.7561C11.6245 18.7561 8.86668 16.931 7.5 14.2611ZM11.8291 14.2611C11.8291 15.9216 13.1611 17.2676 14.8043 17.2676C16.4475 17.2676 17.7796 15.9216 17.7796 14.2611C17.7796 12.6006 16.4475 11.2545 14.8043 11.2545C13.1611 11.2545 11.8291 12.6006 11.8291 14.2611ZM14.8044 15.4785C15.4767 15.4785 16.0218 14.9334 16.0218 14.2611C16.0218 13.5887 15.4767 13.0437 14.8044 13.0437C14.132 13.0437 13.587 13.5887 13.587 14.2611C13.587 14.9334 14.132 15.4785 14.8044 15.4785Z" fill="white"/>
</svg>
