<svg width="30" height="20" viewBox="0 0 30 20" fill="none" xmlns="http://www.w3.org/2000/svg">
<g clip-path="url(#clip0_1786_2416)">
<path d="M26.46 0H2.70667C1.21182 0 0 1.21182 0 2.70667V17.2933C0 18.7882 1.21182 20 2.70667 20H26.46C27.9549 20 29.1667 18.7882 29.1667 17.2933V2.70667C29.1667 1.21182 27.9549 0 26.46 0Z" fill="#E8EAED"/>
<path fill-rule="evenodd" clip-rule="evenodd" d="M17.9329 4.26833C21.0054 4.26833 23.4962 6.74083 23.4962 9.79083C23.4962 12.8408 21.0054 15.3133 17.9329 15.3133C16.611 15.3159 15.3313 14.848 14.3229 13.9933C13.3153 14.8483 12.036 15.3162 10.7146 15.3133C7.64206 15.3133 5.15039 12.8408 5.15039 9.79083C5.15039 6.74083 7.64206 4.26833 10.7146 4.26833C12.0921 4.26833 13.3529 4.76499 14.3246 5.58749C15.3323 4.73286 16.6115 4.26518 17.9329 4.26833Z" fill="#FF5E00"/>
<path fill-rule="evenodd" clip-rule="evenodd" d="M10.7146 4.26831C12.0921 4.26831 13.3529 4.76498 14.3246 5.58748C13.7121 6.10358 13.2198 6.74721 12.8819 7.47338C12.5441 8.19955 12.369 8.99074 12.3687 9.79164C12.3687 11.475 13.1271 12.9816 14.3229 13.9941C13.3153 14.8491 12.036 15.3171 10.7146 15.3141C7.64206 15.3133 5.15039 12.8408 5.15039 9.79081C5.15039 6.74081 7.64206 4.26831 10.7146 4.26831Z" fill="#ED0006"/>
<path fill-rule="evenodd" clip-rule="evenodd" d="M17.9328 4.26832C21.0053 4.26832 23.4961 6.74082 23.4961 9.79082C23.4961 12.8408 21.0053 15.3133 17.9328 15.3133C16.6109 15.3159 15.3312 14.848 14.3228 13.9933C14.9353 13.4776 15.4277 12.8343 15.7656 12.1084C16.1034 11.3825 16.2786 10.5915 16.2787 9.79079C16.2789 8.99009 16.1041 8.19903 15.7665 7.47298C15.4289 6.74692 14.9367 6.10341 14.3244 5.58749C15.3325 4.73349 16.6115 4.2659 17.9328 4.26832Z" fill="#F9A000"/>
</g>
<defs>
<clipPath id="clip0_1786_2416">
<rect width="29.1667" height="20" fill="white"/>
</clipPath>
</defs>
</svg>
