<svg width="22" height="20" viewBox="0 0 22 20" fill="none" xmlns="http://www.w3.org/2000/svg">
<path d="M20.05 5.66727C21.127 5.66735 22.0002 6.54047 22.0002 7.61746V17.3684C22.0002 18.4454 21.127 19.3185 20.05 19.3186H10.2991C9.77972 19.3186 9.3097 19.1135 8.96021 18.7825C8.97366 18.775 8.98783 18.7687 9.00122 18.761L17.4465 13.885C18.8451 13.0772 19.3242 11.2888 18.5168 9.88992L16.0793 5.66727H20.05ZM18.0999 14.4427C17.5613 14.4427 17.1243 14.8797 17.1243 15.4182C17.1243 15.9567 17.5614 16.3929 18.0999 16.3929C18.6383 16.3928 19.0744 15.9567 19.0745 15.4182C19.0745 14.8798 18.6383 14.4427 18.0999 14.4427Z" fill="#D9D9D9"/>
<path fill-rule="evenodd" clip-rule="evenodd" d="M10.1334 1.21879C11.0662 0.68027 12.2589 0.999855 12.7974 1.93261L17.6728 10.3771C18.2114 11.3098 17.8918 12.5025 16.959 13.0411L8.51455 17.9165C7.5818 18.455 6.3891 18.1354 5.85057 17.2027L0.975146 8.7582C0.436622 7.82545 0.756206 6.63274 1.68896 6.09422L10.1334 1.21879ZM7.76574 12.7192C7.29936 12.9884 7.13957 13.5848 7.40883 14.0512C7.67809 14.5175 8.27445 14.6773 8.74082 14.4081C9.2072 14.1388 9.36699 13.5425 9.09773 13.0761C8.82847 12.6097 8.23211 12.4499 7.76574 12.7192ZM12.8324 9.79392C12.3661 10.0632 12.2063 10.6595 12.4755 11.1259C12.7448 11.5923 13.3411 11.7521 13.8075 11.4828C14.2739 11.2136 14.4337 10.6172 14.1644 10.1508C13.8952 9.68445 13.2988 9.52465 12.8324 9.79392ZM8.83646 8.7232C8.37008 8.99246 8.21029 9.58881 8.47955 10.0552C8.74881 10.5216 9.34516 10.6814 9.81154 10.4121C10.2779 10.1428 10.4377 9.54648 10.1684 9.0801C9.89918 8.61373 9.30283 8.45394 8.83646 8.7232ZM4.84048 7.65248C4.37411 7.92174 4.21431 8.5181 4.48358 8.98447C4.75284 9.45085 5.34919 9.61064 5.81557 9.34138C6.28194 9.07211 6.44174 8.47576 6.17247 8.00939C5.90321 7.54301 5.30686 7.38322 4.84048 7.65248ZM9.90717 4.72723C9.4408 4.99649 9.281 5.59284 9.55027 6.05922C9.81953 6.52559 10.4159 6.68538 10.8823 6.41612C11.3486 6.14686 11.5084 5.55051 11.2392 5.08413C10.9699 4.61776 10.3735 4.45796 9.90717 4.72723Z" fill="#D9D9D9"/>
</svg>
