<svg width="16" height="16" viewBox="0 0 16 16" fill="none" xmlns="http://www.w3.org/2000/svg">
<path d="M12.5291 11.469L9.06114 8.00002L12.5301 4.53102C12.8241 4.23702 12.8251 3.76302 12.5311 3.46902C12.2381 3.17602 11.7621 3.17602 11.4701 3.46902L8.00014 6.93802L4.53014 3.46902C4.23814 3.17602 3.76314 3.17602 3.46914 3.46902C3.17714 3.76202 3.17714 4.23802 3.47114 4.53202L6.93914 8.00002L3.47014 11.468C3.17614 11.761 3.17614 12.236 3.46914 12.53C3.61614 12.678 3.81014 12.75 4.00014 12.75C4.19014 12.75 4.38414 12.678 4.53014 12.531L8.00014 9.06202L11.4701 12.531C11.6171 12.677 11.8091 12.75 12.0001 12.75C12.1921 12.75 12.3841 12.678 12.5301 12.531C12.8231 12.236 12.8241 11.762 12.5291 11.469Z" fill="#E6E6E6"/>
</svg>
