<svg width="78" height="90" viewBox="0 0 78 90" fill="none" xmlns="http://www.w3.org/2000/svg">
<g filter="url(#filter0_dddd_3213_3712)">
<rect x="30.0391" y="1.69336" width="46" height="46" rx="8" transform="rotate(13 30.0391 1.69336)" fill="url(#paint0_linear_3213_3712)"/>
<path d="M59.7001 18.8042C61.449 19.2079 62.5395 20.953 62.1357 22.702L57.7492 41.7022C57.3454 43.4511 55.6003 44.5416 53.8514 44.1378L34.8512 39.7512C33.1023 39.3475 32.0118 37.6024 32.4156 35.8534L36.8021 16.8532C37.2059 15.1043 38.951 14.0138 40.6999 14.4176L59.7001 18.8042ZM43.6709 21.7745C42.9715 21.6131 42.2736 22.0492 42.112 22.7486L41.6733 24.6488C41.5118 25.3483 41.948 26.0461 42.6474 26.2077C43.347 26.3692 44.0448 25.9332 44.2063 25.2336L44.3526 24.5999L46.8856 25.1847L44.8384 34.052L44.7075 34.0288C44.0538 33.9462 43.431 34.3703 43.2795 35.0261C43.118 35.7256 43.5541 36.4235 44.2536 36.585L46.7866 37.1698C47.4862 37.3313 48.1849 36.8955 48.3464 36.1959C48.5079 35.4965 48.0716 34.7987 47.3724 34.637L49.4195 25.7697L51.9535 26.3547L51.8072 26.9884C51.6457 27.688 52.0817 28.3858 52.7813 28.5473C53.4808 28.7087 54.1787 28.2727 54.3401 27.5732L54.7788 25.673C54.9402 24.9735 54.5041 24.2757 53.8047 24.1141L43.6709 21.7745Z" fill="url(#paint1_linear_3213_3712)"/>
</g>
<defs>
<filter id="filter0_dddd_3213_3712" x="-1.30859" y="-1.30664" width="80.168" height="92.1689" filterUnits="userSpaceOnUse" color-interpolation-filters="sRGB">
<feFlood flood-opacity="0" result="BackgroundImageFix"/>
<feColorMatrix in="SourceAlpha" type="matrix" values="0 0 0 0 0 0 0 0 0 0 0 0 0 0 0 0 0 0 127 0" result="hardAlpha"/>
<feOffset dx="-1" dy="1"/>
<feGaussianBlur stdDeviation="2"/>
<feColorMatrix type="matrix" values="0 0 0 0 1 0 0 0 0 0.313726 0 0 0 0 0.141176 0 0 0 0.15 0"/>
<feBlend mode="normal" in2="BackgroundImageFix" result="effect1_dropShadow_3213_3712"/>
<feColorMatrix in="SourceAlpha" type="matrix" values="0 0 0 0 0 0 0 0 0 0 0 0 0 0 0 0 0 0 127 0" result="hardAlpha"/>
<feOffset dx="-3" dy="6"/>
<feGaussianBlur stdDeviation="3.5"/>
<feColorMatrix type="matrix" values="0 0 0 0 1 0 0 0 0 0.313726 0 0 0 0 0.141176 0 0 0 0.13 0"/>
<feBlend mode="normal" in2="effect1_dropShadow_3213_3712" result="effect2_dropShadow_3213_3712"/>
<feColorMatrix in="SourceAlpha" type="matrix" values="0 0 0 0 0 0 0 0 0 0 0 0 0 0 0 0 0 0 127 0" result="hardAlpha"/>
<feOffset dx="-6" dy="13"/>
<feGaussianBlur stdDeviation="4.5"/>
<feColorMatrix type="matrix" values="0 0 0 0 1 0 0 0 0 0.313726 0 0 0 0 0.141176 0 0 0 0.08 0"/>
<feBlend mode="normal" in2="effect2_dropShadow_3213_3712" result="effect3_dropShadow_3213_3712"/>
<feColorMatrix in="SourceAlpha" type="matrix" values="0 0 0 0 0 0 0 0 0 0 0 0 0 0 0 0 0 0 127 0" result="hardAlpha"/>
<feOffset dx="-11" dy="24"/>
<feGaussianBlur stdDeviation="5"/>
<feColorMatrix type="matrix" values="0 0 0 0 1 0 0 0 0 0.313726 0 0 0 0 0.141176 0 0 0 0.02 0"/>
<feBlend mode="normal" in2="effect3_dropShadow_3213_3712" result="effect4_dropShadow_3213_3712"/>
<feBlend mode="normal" in="SourceGraphic" in2="effect4_dropShadow_3213_3712" result="shape"/>
</filter>
<linearGradient id="paint0_linear_3213_3712" x1="30.0391" y1="24.6934" x2="76.0391" y2="24.6934" gradientUnits="userSpaceOnUse">
<stop stop-color="#FF9D00"/>
<stop offset="1" stop-color="#FF5907"/>
</linearGradient>
<linearGradient id="paint1_linear_3213_3712" x1="50.2" y1="16.6109" x2="44.3513" y2="41.9445" gradientUnits="userSpaceOnUse">
<stop stop-color="white"/>
<stop offset="1" stop-color="white" stop-opacity="0.8"/>
</linearGradient>
</defs>
</svg>
