<svg width="20" height="20" viewBox="0 0 20 20" fill="none" xmlns="http://www.w3.org/2000/svg">
<g clip-path="url(#clip0_6014_2167)">
<path d="M10.0001 18.3334C12.4835 18.3334 10.9734 14.64 12.5001 12.9167C13.8027 11.4462 18.3334 12.119 18.3334 10C18.3334 5.39765 14.6025 1.66669 10.0001 1.66669C5.39771 1.66669 1.66675 5.39765 1.66675 10C1.66675 14.6024 5.39771 18.3334 10.0001 18.3334Z" stroke="#A5A5A5" stroke-width="1.5" stroke-linejoin="round"/>
<path d="M11.6667 7.08331C12.3571 7.08331 12.9167 6.52369 12.9167 5.83331C12.9167 5.14294 12.3571 4.58331 11.6667 4.58331C10.9764 4.58331 10.4167 5.14294 10.4167 5.83331C10.4167 6.52369 10.9764 7.08331 11.6667 7.08331Z" fill="#A5A5A5"/>
<path d="M6.66675 8.75C7.35712 8.75 7.91675 8.19037 7.91675 7.5C7.91675 6.80962 7.35712 6.25 6.66675 6.25C5.97637 6.25 5.41675 6.80962 5.41675 7.5C5.41675 8.19037 5.97637 8.75 6.66675 8.75Z" fill="#A5A5A5"/>
<path d="M7.08325 14.1667C7.77363 14.1667 8.33325 13.6071 8.33325 12.9167C8.33325 12.2263 7.77363 11.6667 7.08325 11.6667C6.39288 11.6667 5.83325 12.2263 5.83325 12.9167C5.83325 13.6071 6.39288 14.1667 7.08325 14.1667Z" fill="#A5A5A5"/>
</g>
<defs>
<clipPath id="clip0_6014_2167">
<rect width="20" height="20" fill="white"/>
</clipPath>
</defs>
</svg>
