<svg width="24" height="24" viewBox="0 0 24 24" fill="none" xmlns="http://www.w3.org/2000/svg">
<path d="M18.0655 19.0394H5.82051C4.46811 19.0394 3.37158 17.9432 3.37158 16.5905V13.5293C3.37158 13.1912 3.64587 12.9171 3.9837 12.9171H5.20839C5.54644 12.9171 5.82051 13.1912 5.82051 13.5293V15.3661C5.82051 16.0424 6.36867 16.5905 7.04497 16.5905H16.841C17.5173 16.5905 18.0655 16.0424 18.0655 15.3661V13.5293C18.0655 13.1912 18.3396 12.9171 18.6778 12.9171H19.9023C20.2403 12.9171 20.5144 13.1912 20.5144 13.5293V16.5905C20.5144 17.9432 19.4181 19.0394 18.0655 19.0394ZM6.96586 7.02776C7.21355 6.78011 7.6154 6.78011 7.86311 7.02776L10.7188 9.88342V3.71885C10.7188 3.38081 10.9929 3.10645 11.3309 3.10645H12.5553C12.8934 3.10645 13.1677 3.38081 13.1677 3.71885V9.88342L16.0233 7.02776C16.271 6.78011 16.6727 6.78011 16.9204 7.02776L17.8178 7.92523C18.0655 8.17294 18.0655 8.57457 17.8178 8.82248L12.7611 13.8792C12.7392 13.901 12.3458 14.1415 11.95 14.1417C11.5498 14.1419 11.1472 13.9013 11.1253 13.8792L6.06841 8.82248C5.8207 8.57455 5.8207 8.17294 6.06841 7.92523L6.96586 7.02776Z" fill="#ECECEC"/>
</svg>
