<svg width="16" height="16" viewBox="0 0 16 16" fill="none" xmlns="http://www.w3.org/2000/svg">
<g clip-path="url(#clip0_1721_4637)">
<path d="M9.39941 2.14545C9.53623 2.14545 9.6636 2.21683 9.73438 2.33392L10.5645 3.70892H13.4707C13.6865 3.70898 13.8613 3.88376 13.8613 4.09955C13.8612 4.31527 13.6864 4.49012 13.4707 4.49017H12.5117V11.915C12.5117 12.7783 11.8115 13.4784 10.9482 13.4785H5.0459C4.18274 13.4783 3.48242 12.7782 3.48242 11.915V4.49017H2.52832C2.31262 4.49008 2.13778 4.31525 2.1377 4.09955C2.1377 3.88378 2.31257 3.70901 2.52832 3.70892H5.43652L6.28613 2.33099C6.35731 2.21565 6.4836 2.14545 6.61914 2.14545H9.39941ZM6.90332 6.50189C6.67699 6.50211 6.49339 6.68571 6.49316 6.91205V10.4697C6.49336 10.696 6.67697 10.8796 6.90332 10.8798C7.12986 10.8798 7.31328 10.6962 7.31348 10.4697V6.91205C7.31325 6.68558 7.12984 6.50189 6.90332 6.50189ZM9.08887 6.50189C8.86268 6.50229 8.67893 6.68582 8.67871 6.91205V10.4697C8.6789 10.6959 8.86266 10.8794 9.08887 10.8798C9.31541 10.8798 9.49981 10.6962 9.5 10.4697V6.91205C9.49978 6.68558 9.31539 6.50189 9.08887 6.50189Z" fill="#ECECEC"/>
</g>
<defs>
<clipPath id="clip0_1721_4637">
<rect width="12" height="12" fill="white" transform="translate(2 2)"/>
</clipPath>
</defs>
</svg>
