<svg width="16" height="16" viewBox="0 0 16 16" fill="none" xmlns="http://www.w3.org/2000/svg">
<path fill-rule="evenodd" clip-rule="evenodd" d="M10.7588 2C11.624 2 12.3253 2.70135 12.3253 3.5665C12.3253 3.92632 12.2032 4.26856 11.983 4.54402C11.6878 4.91328 11.241 5.13301 10.7588 5.13301C10.4137 5.13301 10.0869 5.0204 9.82085 4.82133L5.77386 8.18177C5.88249 8.39714 5.94111 8.63754 5.94111 8.8867C5.94111 8.98904 5.93124 9.09012 5.91193 9.18881L10.306 11.383C10.5971 11.061 11.0154 10.867 11.4682 10.867C12.1256 10.867 12.7061 11.2757 12.9343 11.8808C13.0004 12.0562 13.0347 12.2428 13.0347 12.4335C13.0347 13.2987 12.3334 14 11.4682 14C10.603 14 9.9017 13.2987 9.9017 12.4335C9.9017 12.3278 9.91224 12.2234 9.93282 12.1217L5.54347 9.92985C5.25221 10.2562 4.83098 10.4532 4.37461 10.4532C3.50945 10.4532 2.80811 9.75186 2.80811 8.8867C2.80811 8.02154 3.50945 7.3202 4.37461 7.3202C4.67954 7.3202 4.97085 7.40804 5.21886 7.56693L9.3121 4.16807C9.23383 3.97994 9.19234 3.77617 9.19234 3.5665C9.19234 2.70135 9.89369 2 10.7588 2ZM10.4933 4.25635C10.4491 4.23935 10.4067 4.21814 10.3667 4.19304L10.4933 4.25635Z" fill="#ECECEC"/>
</svg>
