<svg width="16" height="16" viewBox="0 0 16 16" fill="none" xmlns="http://www.w3.org/2000/svg">
<path d="M8 0C12.4183 0 16 3.58172 16 8C16 12.4183 12.4183 16 8 16C3.58172 16 0 12.4183 0 8C0 3.58172 3.58172 0 8 0ZM8.46191 3.11035C8.29112 2.69971 7.70888 2.69971 7.53809 3.11035L6.53027 5.5332C6.45827 5.70632 6.29529 5.82486 6.1084 5.83984L3.49219 6.0498C3.04886 6.08535 2.86926 6.6384 3.20703 6.92773L5.2002 8.63574C5.34257 8.75772 5.40483 8.94947 5.36133 9.13184L4.75195 11.6846C4.64877 12.1171 5.1195 12.4592 5.49902 12.2275L7.73926 10.8594C7.89927 10.7616 8.10073 10.7616 8.26074 10.8594L10.501 12.2275C10.8805 12.4592 11.3512 12.1171 11.248 11.6846L10.6387 9.13184C10.5952 8.94947 10.6574 8.75772 10.7998 8.63574L12.793 6.92773C13.1307 6.6384 12.9511 6.08535 12.5078 6.0498L9.8916 5.83984C9.70471 5.82486 9.54173 5.70632 9.46973 5.5332L8.46191 3.11035Z" fill="white"/>
</svg>
