<svg width="18" height="18" viewBox="0 0 18 18" fill="none" xmlns="http://www.w3.org/2000/svg">
<path d="M9 1.51074C4.85775 1.51074 1.5 4.8685 1.5 9.01076C1.5 13.153 4.85775 16.5108 9 16.5108C13.1423 16.5108 16.5 13.153 16.5 9.01076C16.5 4.8685 13.1423 1.51074 9 1.51074ZM9 3.01075C12.3135 3.01075 15 5.69725 15 9.01076C15 12.3243 12.3135 15.0108 9 15.0108C5.6865 15.0108 3 12.3243 3 9.01076C3 5.69725 5.6865 3.01075 9 3.01075ZM9 5.26075C8.586 5.26075 8.25 5.59675 8.25 6.01075C8.25 6.42475 8.586 6.76076 9 6.76076C9.414 6.76076 9.75 6.42475 9.75 6.01075C9.75 5.59675 9.414 5.26075 9 5.26075ZM8.25 7.51076C7.836 7.51076 7.5 7.84676 7.5 8.26076C7.5 8.62226 7.76926 8.89225 8.10901 8.96425L7.66425 11.1198C7.49025 11.9905 8.11275 12.7608 9 12.7608H9.75C10.164 12.7608 10.5 12.4248 10.5 12.0108C10.5 11.5968 10.164 11.2608 9.75 11.2608H9.16425L9.72675 8.40175C9.81975 7.9375 9.47325 7.51076 9 7.51076C8.9055 7.51076 8.3715 7.51076 8.25 7.51076Z" fill="#A4A4A4"/>
</svg>
