<svg width="64" height="66" viewBox="0 0 64 66" fill="none" xmlns="http://www.w3.org/2000/svg">
<rect x="-1.15625" y="10.5654" width="56" height="56" rx="9.73913" transform="rotate(-10 -1.15625 10.5654)" fill="url(#paint0_linear_4443_6789)"/>
<path d="M48.721 46.2059L45.4182 46.7883L42.2714 40.9776L42.1894 40.9921L41.3029 47.5139L37.9169 48.111L39.5282 37.0248L43.4152 36.3394L48.721 46.2059Z" fill="black"/>
<path d="M52.5765 45.5261L49.5359 46.0622L47.6886 35.5859L50.7292 35.0498L52.5765 45.5261Z" fill="black"/>
<path d="M35.2151 44.9199L34.8272 47.5946L20.5446 50.113C19.0181 50.3821 17.5388 49.7863 16.6107 48.6772L24.9085 38.8566L35.2151 44.9199Z" fill="black"/>
<path fill-rule="evenodd" clip-rule="evenodd" d="M42.2172 16.5848C44.4903 16.184 46.6588 17.7024 47.0596 19.9755L49.2037 32.1354L38.2415 34.0683C37.3537 34.225 36.6663 34.9338 36.5366 35.826L35.8651 40.4521L27.0268 35.2539C25.2723 34.2221 23.0291 34.6044 21.7154 36.159L15.2005 43.8701L12.075 26.1442C11.6742 23.8712 13.1915 21.703 15.4645 21.3021L42.2172 16.5848ZM36.7681 21.789C34.4953 22.19 32.9778 24.3582 33.3786 26.6311C33.7794 28.904 35.9467 30.4213 38.2196 30.0208C40.4926 29.62 42.0111 27.4527 41.6104 25.1796C41.2096 22.9065 39.0412 21.3882 36.7681 21.789Z" fill="black"/>
<defs>
<linearGradient id="paint0_linear_4443_6789" x1="-1.15625" y1="38.5654" x2="54.8438" y2="38.5654" gradientUnits="userSpaceOnUse">
<stop stop-color="#C2FF59"/>
<stop offset="1" stop-color="#98FF59"/>
</linearGradient>
</defs>
</svg>
