<svg width="21" height="20" viewBox="0 0 21 20" fill="none" xmlns="http://www.w3.org/2000/svg">
<g clip-path="url(#clip0_15_933)">
<path d="M13.3467 3C13.4365 3.00082 13.5262 3.01545 13.6123 3.04395L13.6973 3.07715C13.7809 3.11478 13.86 3.16583 13.9307 3.22852L13.999 3.2959L14.0049 3.30176L19.7197 9.28711C19.8514 9.425 19.9439 9.60326 19.9814 9.80078C20.0096 9.94901 20.0052 10.1013 19.9707 10.2461L19.9268 10.3887L19.9258 10.3896C19.8777 10.5119 19.8075 10.6213 19.7207 10.7129L14.0068 16.6982L14.3682 17.043L14.0059 16.6982L13.9326 16.7715C13.8619 16.8343 13.783 16.8852 13.6992 16.9229C13.5877 16.973 13.4685 16.9989 13.3486 17L13.2588 16.9961C13.1692 16.9876 13.0805 16.9649 12.9961 16.9287C12.9119 16.8926 12.8323 16.8436 12.7607 16.7822L12.6914 16.7168C12.6252 16.6475 12.569 16.5674 12.5244 16.4795L12.4834 16.3887C12.447 16.2954 12.4247 16.1964 12.416 16.0957L12.4121 15.9951C12.413 15.8935 12.4281 15.7931 12.457 15.6973L12.4902 15.6035C12.5282 15.511 12.5788 15.4256 12.6396 15.3506L12.7031 15.2793L12.71 15.2725L15.9854 11.8418L16.793 10.9971H1.92871C1.71983 10.9971 1.51467 10.9209 1.34863 10.7783L1.28027 10.7139C1.10345 10.5287 1.00006 10.2724 1 10.001C1 9.76343 1.07853 9.53715 1.2168 9.36035L1.28027 9.28809C1.45639 9.10371 1.69011 9.00488 1.92871 9.00488H16.793L15.9854 8.15918L12.708 4.72754L12.3467 5.07227L12.708 4.72656L12.7021 4.7207L12.6377 4.64941C12.5972 4.59937 12.5619 4.54447 12.5312 4.48633L12.4893 4.39648C12.4515 4.30428 12.4264 4.20662 12.416 4.10645L12.4102 4.00488C12.4093 3.90328 12.4228 3.80246 12.4502 3.70605L12.4824 3.61133C12.5309 3.48724 12.6021 3.3757 12.6904 3.2832C12.7566 3.21393 12.8314 3.15615 12.9121 3.11133L12.9951 3.07129C13.0793 3.03522 13.1674 3.01244 13.2568 3.00391L13.3467 3Z" fill="white" stroke="white"/>
</g>
<defs>
<clipPath id="clip0_15_933">
<rect width="20" height="20" fill="white" transform="translate(0.5)"/>
</clipPath>
</defs>
</svg>
