<svg width="24" height="24" viewBox="0 0 24 24" fill="none" xmlns="http://www.w3.org/2000/svg">
<g clip-path="url(#clip0_15_4876)">
<path d="M14.1006 3.21851C14.3057 3.21864 14.4955 3.32616 14.6016 3.50171L15.8477 5.56323H20.207C20.5305 5.56347 20.7929 5.82562 20.793 6.14917C20.793 6.47276 20.5306 6.73487 20.207 6.73511H18.7676V17.8728C18.7676 19.1678 17.7178 20.2175 16.4229 20.2175H7.56934C6.27446 20.2174 5.22461 19.1677 5.22461 17.8728V6.73511H3.79297C3.46943 6.73486 3.20703 6.47276 3.20703 6.14917C3.20708 5.82562 3.46946 5.56347 3.79297 5.56323H8.15625L9.42969 3.49683C9.53641 3.32378 9.72541 3.21856 9.92871 3.21851H14.1006ZM10.3555 9.75269C10.0159 9.75299 9.74043 10.0293 9.74023 10.3689V15.7039C9.74029 16.0436 10.0158 16.3188 10.3555 16.3191C10.6954 16.3191 10.9716 16.0438 10.9717 15.7039V10.3689C10.9715 10.0291 10.6953 9.75269 10.3555 9.75269ZM13.6348 9.75269C13.295 9.75281 13.0197 10.0291 13.0195 10.3689V15.7039C13.0196 16.0437 13.2949 16.319 13.6348 16.3191C13.9747 16.3191 14.2499 16.0438 14.25 15.7039V10.3689C14.2498 10.0291 13.9746 9.75269 13.6348 9.75269Z" fill="#161616"/>
</g>
<defs>
<clipPath id="clip0_15_4876">
<rect width="18" height="18" fill="white" transform="translate(3 3)"/>
</clipPath>
</defs>
</svg>
