<svg width="17" height="16" viewBox="0 0 17 16" fill="none" xmlns="http://www.w3.org/2000/svg">
<path d="M12.544 12.6928H4.38066C3.47907 12.6928 2.74805 11.962 2.74805 11.0602V9.01934C2.74805 8.79398 2.93091 8.61125 3.15612 8.61125H3.97259C4.19795 8.61125 4.38066 8.79398 4.38066 9.01934V10.2439C4.38066 10.6948 4.74611 11.0602 5.19697 11.0602H11.7277C12.1786 11.0602 12.544 10.6948 12.544 10.2439V9.01934C12.544 8.79398 12.7267 8.61125 12.9522 8.61125H13.7685C13.9939 8.61125 14.1766 8.79398 14.1766 9.01934V11.0602C14.1766 11.962 13.4457 12.6928 12.544 12.6928ZM5.14423 4.68501C5.30936 4.51991 5.57726 4.51991 5.7424 4.68501L7.64616 6.58879V2.47907C7.64616 2.25371 7.82892 2.0708 8.05425 2.0708H8.87055C9.09595 2.0708 9.27879 2.25371 9.27879 2.47907V6.58879L11.1826 4.68501C11.3477 4.51991 11.6155 4.51991 11.7806 4.68501L12.3788 5.28332C12.544 5.44846 12.544 5.71622 12.3788 5.88149L9.00774 9.25264C8.99316 9.26718 8.73088 9.42751 8.46697 9.42762C8.20018 9.42775 7.93178 9.26735 7.91719 9.25264L4.54593 5.88149C4.3808 5.7162 4.3808 5.44846 4.54593 5.28332L5.14423 4.68501Z" fill="#6B7280"/>
</svg>
