<svg width="17" height="16" viewBox="0 0 17 16" fill="none" xmlns="http://www.w3.org/2000/svg">
<path d="M12.5435 12.6928H4.38018C3.47858 12.6928 2.74756 11.962 2.74756 11.0602V9.01934C2.74756 8.79398 2.93042 8.61125 3.15563 8.61125H3.9721C4.19746 8.61125 4.38018 8.79398 4.38018 9.01934V10.2439C4.38018 10.6948 4.74562 11.0602 5.19649 11.0602H11.7272C12.1781 11.0602 12.5435 10.6948 12.5435 10.2439V9.01934C12.5435 8.79398 12.7262 8.61125 12.9517 8.61125H13.768C13.9934 8.61125 14.1761 8.79398 14.1761 9.01934V11.0602C14.1761 11.962 13.4453 12.6928 12.5435 12.6928ZM5.14374 4.68501C5.30887 4.51991 5.57677 4.51991 5.74191 4.68501L7.64567 6.58879V2.47907C7.64567 2.25371 7.82843 2.0708 8.05376 2.0708H8.87006C9.09546 2.0708 9.2783 2.25371 9.2783 2.47907V6.58879L11.1821 4.68501C11.3472 4.51991 11.615 4.51991 11.7801 4.68501L12.3784 5.28332C12.5435 5.44846 12.5435 5.71622 12.3784 5.88149L9.00725 9.25264C8.99267 9.26718 8.73039 9.42751 8.46648 9.42762C8.19969 9.42775 7.93129 9.26735 7.9167 9.25264L4.54545 5.88149C4.38031 5.7162 4.38031 5.44846 4.54545 5.28332L5.14374 4.68501Z" fill="#FF5C07"/>
</svg>
